<?xml version="1.0" encoding="UTF-8" standalone="no"?>
<!DOCTYPE svg PUBLIC "-//W3C//DTD SVG 1.1//EN" "http://www.w3.org/Graphics/SVG/1.1/DTD/svg11.dtd">
<svg width="100%" height="100%" viewBox="0 0 513 513" version="1.1" xmlns="http://www.w3.org/2000/svg" xmlns:xlink="http://www.w3.org/1999/xlink" xml:space="preserve" xmlns:serif="http://www.serif.com/" style="fill-rule:evenodd;clip-rule:evenodd;stroke-linejoin:round;stroke-miterlimit:2;">
    <defs>
        <style>
            path { fill: #00A3FF; }
        </style>
    </defs>
    <path d="M317.134,178.542C317.95,177.687 318.753,176.947 319.491,176.426L323.685,176.426L323.685,178.542L317.134,178.542ZM324.685,178.542L324.685,176.629C325.926,177.114 327.444,177.762 329.157,178.542L324.685,178.542ZM332.344,179.744C332.96,180.042 333.59,180.647 334.234,180.967L334.234,185.975L324.685,185.975L324.685,179.744L332.344,179.744ZM323.685,179.744L323.685,185.975L314.136,185.975L314.136,182.061C314.666,181.382 315.221,180.402 315.785,179.744L323.685,179.744ZM348.51,246.607C348.303,247.479 348.105,248.369 347.915,249.269L345.783,249.269L345.783,239.72L350.526,239.72C350.113,240.834 349.726,242.044 349.362,243.322L404.974,243.322L443.423,204.037C442.643,202.993 442.18,201.697 442.18,200.294C442.18,196.839 444.985,194.034 448.44,194.034C451.895,194.034 454.7,196.839 454.7,200.294C454.7,203.749 451.895,206.554 448.44,206.554C447.604,206.554 446.806,206.39 446.076,206.092L406.866,246.155C406.553,246.475 406.123,246.655 405.675,246.655L348.911,246.655C348.772,246.655 348.638,246.639 348.51,246.607ZM448.44,197.367C446.825,197.367 445.513,198.679 445.513,200.294C445.513,201.909 446.825,203.221 448.44,203.221C450.055,203.221 451.367,201.909 451.367,200.294C451.367,198.679 450.055,197.367 448.44,197.367ZM346.705,255.757C346.475,257.139 346.263,258.502 346.067,259.818L345.783,259.818L345.783,250.269L347.709,250.269C347.537,251.12 347.373,251.977 347.216,252.835C347.372,252.786 347.537,252.76 347.709,252.76L409.919,252.76L443.05,222.633C443.356,222.354 443.755,222.2 444.169,222.199L472.799,222.161C473.529,219.513 475.956,217.565 478.835,217.565C482.29,217.565 485.095,220.371 485.095,223.826C485.095,227.281 482.29,230.086 478.835,230.086C475.958,230.086 473.531,228.14 472.8,225.494L444.816,225.532L411.685,255.66C411.378,255.939 410.978,256.094 410.563,256.094L347.709,256.094C347.332,256.094 346.985,255.968 346.705,255.757ZM475.908,223.826C475.908,225.441 477.22,226.752 478.835,226.752C480.45,226.752 481.762,225.441 481.762,223.826C481.762,222.21 480.45,220.899 478.835,220.899C477.221,220.899 475.91,222.209 475.908,223.823L475.908,223.826ZM344.783,265.948L344.783,269.09L344.758,269.27C344.708,269.625 344.637,269.991 344.546,270.367L335.234,270.367L335.234,260.818L344.783,260.818L344.783,262.615L417.16,262.615L435.667,245.624C436.345,245.002 437.4,245.047 438.022,245.724C438.644,246.402 438.599,247.457 437.922,248.079L418.936,265.509C418.629,265.792 418.226,265.948 417.809,265.948L344.783,265.948ZM365.881,287.212L365.881,291.465L356.332,291.465L356.332,281.916L365.881,281.916L365.881,283.878L445.764,283.878C445.843,283.878 445.92,283.884 445.996,283.894C445.97,283.663 445.956,283.429 445.956,283.191C445.956,279.736 448.761,276.931 452.217,276.931C455.672,276.931 458.477,279.736 458.477,283.191C458.477,286.646 455.672,289.451 452.217,289.451C450.043,289.451 448.127,288.341 447.005,286.658C446.699,286.998 446.257,287.212 445.764,287.212L371.235,287.212C373.355,287.312 375.167,287.664 376.429,288.749L376.429,291.465L366.881,291.465L366.881,287.212L365.881,287.212ZM452.217,280.264C450.601,280.264 449.29,281.575 449.29,283.191C449.29,284.806 450.601,286.118 452.217,286.118C453.832,286.118 455.143,284.806 455.143,283.191C455.143,281.575 453.832,280.264 452.217,280.264ZM378.549,302.014L377.429,302.014L377.429,292.465L378.392,292.465C378.986,294.19 379.711,296.494 379.852,298.936L426.834,298.936C427.276,298.936 427.7,299.111 428.013,299.424L443.188,314.599L472.578,314.599L472.575,314.405C472.575,310.95 475.38,308.145 478.835,308.145C482.29,308.145 485.095,310.95 485.095,314.405C485.095,317.86 482.29,320.666 478.835,320.666C476.688,320.666 474.792,319.582 473.664,317.933L442.498,317.933C442.056,317.933 441.632,317.757 441.32,317.444L426.144,302.269L409.263,302.269L435.905,328.87C436.937,328.12 438.206,327.678 439.577,327.678C443.033,327.678 445.838,330.483 445.838,333.938C445.838,337.394 443.033,340.199 439.577,340.199C436.122,340.199 433.317,337.394 433.317,333.938C433.317,333.07 433.494,332.243 433.815,331.491L433.771,331.449L404.545,302.269L379.435,302.269C379.109,302.269 378.805,302.175 378.549,302.014ZM478.835,311.479C477.22,311.479 475.908,312.79 475.908,314.405C475.908,316.021 477.22,317.332 478.835,317.332C480.45,317.332 481.762,316.021 481.762,314.405C481.762,312.79 480.45,311.479 478.835,311.479ZM439.577,331.012C437.962,331.012 436.651,332.323 436.651,333.938C436.651,335.554 437.962,336.865 439.577,336.865C441.193,336.865 442.504,335.554 442.504,333.938C442.504,332.323 441.193,331.012 439.577,331.012ZM357.214,319.534C356.931,319.654 356.636,319.777 356.332,319.902L356.332,313.563L365.881,313.563L365.881,315.071C364.94,315.616 363.992,316.137 362.99,316.671L397.527,316.671C397.946,316.671 398.35,316.828 398.658,317.112L413.613,330.915C414.289,331.539 414.331,332.594 413.707,333.27C413.083,333.946 412.028,333.989 411.352,333.365L396.876,320.004L358.374,320.004C357.924,320.004 357.515,319.825 357.214,319.534ZM355.332,225.063L355.332,228.171L345.783,228.171L345.783,218.622L355.332,218.622L355.332,221.73L381.522,221.73L423.232,180.76C423.54,180.458 423.952,180.287 424.384,180.283L472.894,179.816C473.62,177.162 476.05,175.209 478.933,175.209C482.388,175.209 485.193,178.014 485.193,181.469C485.193,184.924 482.388,187.729 478.933,187.729C476.06,187.729 473.637,185.789 472.902,183.149L425.088,183.61L383.372,224.586C383.06,224.892 382.641,225.063 382.204,225.063L355.332,225.063ZM476.006,181.469C476.006,183.084 477.318,184.395 478.933,184.395C480.549,184.395 481.86,183.084 481.86,181.469C481.86,179.853 480.549,178.542 478.933,178.542C477.323,178.542 476.015,179.845 476.006,181.453L476.006,181.469ZM292.038,359.201C291.749,359.501 291.447,359.845 291.13,360.236C290.778,360.67 290.772,360.609 286.288,365.276C273.539,374.114 273.152,375.522 274.404,375.691C277.13,376.061 284.174,367.946 285.418,369.534C285.634,369.811 285.468,370.277 285.685,370.554C285.044,371.498 282.629,375.062 275.353,380.389C277.514,384.251 275.235,384.084 271.936,386.912C254.915,399.662 250.02,406.206 237.536,403.385C236.654,403.185 224.668,403.728 229.725,401.829C230.546,401.521 239.375,401.266 236.836,399.096C235.478,397.934 235.195,399.92 214.508,399.798C201.71,399.723 119.711,403.807 92.444,416.386C78.67,422.741 45.592,398.633 46.798,391.577C47.876,385.269 50.126,386.793 56.516,387.231C74.166,388.44 74.191,387.97 91.452,384.28C94.297,383.672 151.371,376.682 151.53,376.532C152.084,376.01 151.729,372.916 153.57,361.506C154.326,356.822 148.919,360.413 134.542,361.98C126.838,362.82 125.914,365.986 115.506,364.463C98.47,361.968 87.408,347.387 87.552,345.504C87.903,340.906 89.885,342.361 94.421,342.978C106.468,344.615 106.429,343.127 118.551,341.821C121.767,341.475 150.97,336.494 152.62,335.683C156.213,333.917 147.91,305.228 146.309,318.473C146.161,319.696 145.105,328.425 133.563,327.102C121.03,325.665 110.418,308.546 110.142,302.521C109.856,296.28 110.25,296.153 107.302,290.602C105.02,286.306 107.574,286.06 112.487,285.953C124.016,285.701 134.344,297.724 138.352,296.108C152.87,290.253 153.12,286.217 170.556,282.669C172.852,282.202 172.248,280.865 174.51,280.566C193.451,278.057 207.828,288.863 208.439,288.92C217.587,289.768 239.267,276.725 245.504,277.514C246.511,277.641 246.416,277.507 247.499,277.499L248.21,277.089C257.026,269.336 257.601,269.51 257.314,268.554C256.877,267.1 221.199,267.686 218.559,268.731C216.229,269.653 215.252,267.957 213.476,268.327C202.153,270.681 201.895,267.607 190.539,269.766C190.225,269.826 190.243,269.778 186.546,269.927C181.989,270.147 182.069,270.385 177.52,270.615C171.178,271.971 162.799,272.619 161.511,272.719C102.397,277.289 92.59,294.984 66.737,280.099C61.047,276.823 61.501,276.234 55.744,273.098C50.304,270.136 50.83,263.744 54.514,263.629C66.183,263.263 68.769,266.187 83.57,262.792C86.953,262.016 88.263,261.715 126.443,256.135C132.753,255.213 134.759,255.076 135.486,255.026C138.349,254.829 144.685,253.587 145.48,253.431C146.806,253.171 146.37,252.738 146.649,251.444L146.564,249.589C150.584,246.778 149.549,240.953 147.486,241.23C125.726,244.151 110.922,256.486 93.886,241.085C81.202,229.617 96.81,229.097 107.596,224.843C109.812,223.97 148.901,208.058 149.605,205.53C151.836,197.528 124.659,212.668 112.447,209.669C106.23,208.143 101.924,202.41 100.869,207.576C99.786,212.88 96.285,211.405 94.852,212.843C90.09,217.621 83.591,211.004 81.335,209.814C80.228,209.231 77.531,207.809 69.967,199.073C69.361,198.373 59.13,180.683 59.057,176.511C58.833,163.579 55.648,160.463 54.028,137.509C53.444,129.228 51.465,122.848 51.082,121.612C48.186,112.276 53.833,111.939 62.685,116.09C65.81,117.556 66.482,116.127 75.179,121.942C81.902,126.437 86.202,133.006 86.945,134.141C89.773,138.461 88.285,125.428 102.502,119.504C130.411,107.875 192.826,100.375 193.441,100.246C199.206,99.039 236.775,97.095 240.712,94.874C246.647,91.525 250.613,90.736 255.458,90.905C255.798,90.835 256.146,90.765 256.5,90.695C256.5,90.695 257.988,90.814 260.391,91.11L260.391,94.62C260.725,94.814 261.058,95.012 261.391,95.214L261.391,91.236C262.797,91.42 264.443,91.655 266.239,91.953L266.482,91.978C268.069,92.144 269.554,92.359 270.94,92.611L270.94,101.584L269.765,101.584C270.102,101.911 270.433,102.244 270.758,102.584L270.94,102.584L270.94,102.776C271.281,103.138 271.614,103.507 271.94,103.884L271.94,102.584L281.489,102.584L281.489,112.132L277.039,112.132C277.171,112.462 277.296,112.795 277.416,113.132L281.489,113.132L281.489,122.681L280.084,122.681C280.168,122.997 280.252,123.331 280.336,123.681L281.489,123.681L281.489,131.013C281.734,133.905 281.791,137.262 281.489,141.037L281.489,143.779L281.213,143.779C281.173,144.11 281.13,144.443 281.085,144.779L281.489,144.779L281.489,154.328L279.139,154.328C279.05,154.66 278.957,154.993 278.862,155.328L281.489,155.328L281.489,164.877L276.271,164.877L276.022,165.877L281.489,165.877L281.489,172.799C280.997,172.964 280.62,173.075 280.48,173.089C278.713,173.266 277.599,173.127 276.144,175.426L273.827,175.426L273.615,176.426L275.57,176.426C274.871,177.756 274.078,179.648 273.101,182.35C272.749,183.323 272.357,184.264 271.94,185.17L271.94,184.928L271.866,185.328C269.312,190.812 265.885,194.939 265.199,196.568C266.35,196.231 268.37,195.645 270.94,194.926L270.94,196.524L270.005,196.524L269.857,197.524L270.94,197.524L270.94,203.497C271.242,203.782 271.577,204.11 271.94,204.48L271.94,197.524L281.489,197.524L281.489,207.073L274.285,207.073C274.551,207.391 274.824,207.724 275.101,208.073L281.489,208.073L281.489,214.63C279.606,215.16 277.884,215.68 276.402,216.164C253.799,223.553 252.531,223.161 250.492,222.53C239.016,218.981 244.795,210.117 230.553,201.431C227.119,199.337 228.598,192.744 223.581,194.688C221.645,195.439 221.317,194.117 198.417,201.062C197.741,201.267 197.706,201.046 189.758,202.812C186.275,206.163 187.637,206.778 188.049,211.58C188.14,212.647 188.583,213.881 201.43,211.171C207.646,209.859 215.383,204.101 234.536,213.429C239.762,215.975 246.768,222.677 242.484,227.486C235.441,235.395 226.907,228.015 204.562,232.827C198.617,234.107 186.289,232.471 187.355,238.519C188.448,244.72 185.301,248.868 191.519,247.63C198.547,246.231 214.872,245.657 221.461,244.305C225.631,243.449 240.058,244.105 246.709,240.903C250.074,239.283 250.609,240.853 253.634,238.672C254.07,238.358 269.388,236.555 274.543,232.551C278.231,229.687 281.929,228.752 285.414,228.85L285.501,229.171L288.377,229.171C289.64,229.405 290.865,229.75 292.038,230.156L292.038,238.72L287.303,238.72C287.341,239.051 287.377,239.384 287.411,239.72L292.038,239.72L292.038,249.269L287.772,249.269C287.764,249.6 287.755,249.934 287.743,250.269L292.038,250.269L292.038,252.064C283.009,256.381 276.925,260.484 252.651,276.637L252.637,276.808C252.513,277.04 252.03,277.243 252.131,277.494L252.557,277.765L252.479,278.694L253.494,278.36C254.794,278.022 258.335,277.178 262.758,276.131L262.987,275.781C262.987,275.781 264.087,275.642 265.866,275.395C272.635,273.793 280.573,271.914 285.754,270.627L285.674,271.367L292.038,271.367L292.038,280.916L284.685,280.916L284.588,281.916L292.038,281.916L292.038,291.459L292.018,291.465L283.774,291.465L283.703,292.465L288.329,292.465C284.059,293.6 279.186,294.793 273.574,295.79C272.119,296.048 271.456,296.372 271.3,296.741C273.455,298.481 282.772,305.99 291.205,312.563L283.233,312.563C283.245,312.896 283.257,313.23 283.271,313.563L292.038,313.563L292.038,323.112L284.02,323.112C284.059,323.445 284.1,323.778 284.142,324.112L292.038,324.112L292.038,333.661L285.751,333.661C285.822,333.994 285.894,334.327 285.968,334.661L292.038,334.661L292.038,344.21L288.513,344.21C288.617,344.542 288.722,344.876 288.829,345.21L292.038,345.21L292.038,353.015C288.921,353.885 273.713,362.462 273.657,362.566C271.697,366.271 285.217,358.583 286.665,357.825C289.554,355.786 291.245,354.485 292.038,353.744L292.038,354.759L291.308,354.759C291.359,355.09 291.408,355.423 291.454,355.759L292.038,355.759L292.038,359.201ZM107.754,228.166C110.915,228.195 147.603,220.379 148.684,219.96C151.012,219.059 149.894,214.111 149.337,213.703C148.037,212.749 132.07,218.187 130.605,218.766C117.11,224.101 109.996,224.989 107.754,228.166ZM206.333,264.747C206.022,264.708 199.714,263.913 202.719,266.247C203.078,266.526 206.137,266.302 206.269,266.17C206.349,266.089 206.269,266.17 206.333,264.747ZM192.675,168.462C195.112,166.972 193.668,166.361 193.499,166.412C193.076,166.538 192.893,167.119 192.47,167.245C188.917,169.445 188.91,169.389 188.633,169.621L188.711,171.256C191.028,170.374 190.881,170.232 192.675,168.462ZM177.841,267.809C178.155,268.215 177.869,268.561 178.5,268.968C178.548,268.999 180.035,269.96 179.032,268.5C178.774,268.126 178.239,268.037 177.841,267.809ZM177.841,267.809C177.766,267.712 177.658,267.613 177.497,267.508C177.584,267.636 177.705,267.73 177.841,267.809ZM186.5,266.293C186.69,266.532 185.496,267.795 187.695,267.792C187.844,267.792 187.708,267.49 189.507,267.364C197.483,266.809 197.471,267.114 198.156,267.01C204.483,266.049 193.603,263.998 186.5,266.293ZM202.457,196.082C203.65,196.451 203.889,197.826 204.246,196.636C204.618,195.398 203.732,196.088 202.457,196.082ZM225.843,295.762C225.608,296.039 220.594,301.341 222.221,305.619C223.32,308.511 222.601,308.528 221.989,311.582C221.452,314.265 216.025,316.94 214.471,317.03C185.563,318.703 182.954,283.484 168.499,285.261C153.703,287.08 148.057,300.425 147.204,302.441C145.899,305.527 150.557,303.035 151.526,302.976C168.081,301.968 182.224,309.525 183.289,309.992C198.634,316.718 192.751,329.424 197.516,328.636C216.317,325.526 216.122,321.046 222.425,323.686C241.703,331.758 243.137,330.508 246.303,334.643C247.319,335.97 246.946,345.975 246.657,346.57C244.159,351.713 239.859,350.811 232.507,350.358C224.576,349.869 202.784,352.141 202.436,352.216C195.393,353.755 193.175,352 193.051,356.48C193.018,357.676 192.648,371.004 192.728,371.433C192.975,372.75 193.468,373.247 209.467,372.034C221.578,371.116 221.488,371.399 233.513,370.706C237.424,370.481 263.124,363.709 267.222,361.114C273.351,357.232 274.062,358.96 280.629,355.76C286.794,352.755 290.875,351.635 288.264,348.706C282.823,342.6 282.492,343.029 277.05,336.894C263.147,321.22 263.742,320.825 262.443,319.56C256.555,313.825 252.787,304.439 249.106,299.84C246.739,296.883 247.067,296.574 246.625,279.468C244.627,279.518 237.63,279.69 224.982,291.954C224.196,292.716 224.301,293.562 224.283,293.605C224.624,293.439 225.067,293.941 225.408,293.775L230.347,289.991L231.794,290.624C228.836,293.257 228.837,293.142 225.843,295.762ZM148.966,162.5C148.721,150.601 149.199,150.12 148.261,149.972C146.683,149.724 147.078,150.595 144.201,155.317C136.911,167.282 139.084,168.048 139.744,173.489C139.818,174.1 139.487,173.962 136.036,180.236C134.023,183.895 123.838,182.087 123.349,181.888C110.772,176.751 109.876,162.978 108.586,158.468C107.688,155.33 104.003,152.084 102.632,149.436C102.349,148.889 101.493,147.237 108.472,144.431C109.54,144.002 109.926,143.846 122.598,147.163C131.082,149.384 131.627,157.071 137.57,153.623C149.941,146.448 150.257,144.01 145.516,130.492C144.607,127.9 143.475,129.535 126.587,133.87C116.143,136.551 102.491,129.449 97.434,130.099C84.609,131.747 101.445,189.622 102.627,190.311C103.103,190.589 142.314,183.085 148.272,181.07C148.722,180.918 149.473,180.852 148.966,162.5ZM197.443,197.712L194.439,198.27C195.028,198.621 195.256,199.419 195.845,199.77C196.726,200.296 196.506,199.564 197.443,197.712ZM201.447,169.338C201.426,169.11 199.941,168.839 201.274,167.436C207.286,161.11 196.592,168.785 196.25,169.031C195.693,169.445 193.106,171.368 188.84,173.536C189.119,173.991 189.647,174.854 195.485,174.08C208.774,172.32 208.863,168.152 221.549,172.37C229.194,174.912 231.376,178.116 232.062,173.417C232.497,170.44 235.215,171.962 236.706,166.556C237.368,164.152 246.71,139.682 248.166,123.45C248.336,121.558 250.424,118.622 245.46,117.968C240.219,117.278 224.716,115.237 179.538,122.596C171.014,123.985 192.449,126.741 191.933,142.503C191.763,147.712 189.173,147.174 189.026,154.49C188.999,155.854 186.372,163.1 189.446,161.431C190.293,160.971 197.506,149.37 198.172,148.299C204.313,138.423 203.169,135.495 202.742,134.405C202.207,133.036 198.82,129.453 206.412,127.175C211.115,125.764 240.292,136.988 234.667,149.585C232.368,154.733 224.967,152.418 214.401,162.401C209.841,166.71 209.34,165.907 201.447,169.338ZM218.207,265.144C219.824,264.643 219.728,264.671 221.519,264.616C223.016,264.57 222.837,262.975 222.412,262.692C221.472,262.066 221.46,262.601 219.332,263.719C211.681,262.676 210.283,264.059 209.735,264.602C210.74,267.087 211.581,265.368 215.595,265.276C216.962,265.245 216.886,265.299 218.207,265.144ZM271.94,92.803C274.866,93.391 277.318,94.135 279.317,94.884C280.047,95.102 280.773,95.33 281.489,95.569L281.489,101.584L271.94,101.584L271.94,92.803ZM282.489,95.912C286.156,97.204 289.525,98.791 292.038,100.728L292.038,101.584L282.489,101.584L282.489,95.912ZM293.038,101.56L293.064,101.584L293.038,101.584L293.038,101.56ZM294.066,102.584C294.397,102.951 294.699,103.329 294.967,103.717C297.011,106.675 298.601,109.497 299.747,112.132L293.038,112.132L293.038,102.584L294.066,102.584ZM300.165,113.132C301.603,116.737 302.181,119.966 301.92,122.681L293.038,122.681L293.038,113.132L300.165,113.132ZM301.782,123.681C301.49,125.285 300.876,126.684 299.946,127.847C299.366,128.572 298.786,129.262 298.219,129.911C298.598,130.151 299.082,130.393 299.704,130.663C298.345,132.381 297.9,132.971 297.695,133.23L293.038,133.23L293.038,123.681L301.782,123.681ZM295.846,134.23C295.271,134.345 294.623,134.383 293.943,134.377C293.593,134.71 293.288,134.993 293.038,135.221L293.038,134.23L295.846,134.23ZM293.038,135.853C294.51,135.78 298.03,135.598 302.587,135.311L302.587,143.779L293.038,143.779L293.038,135.853ZM303.587,135.248C306.483,135.061 309.744,134.836 313.136,134.571L313.136,143.779L303.587,143.779L303.587,135.248ZM314.136,134.492C315.183,134.408 316.241,134.321 317.301,134.23L323.685,134.23L323.685,143.779L314.136,143.779L314.136,134.492ZM327.52,133.23C329.892,132.962 332.16,132.675 334.234,132.368L334.234,133.23L327.52,133.23ZM335.234,132.216C339.932,131.485 343.493,130.648 344.783,129.712L344.783,133.23L335.234,133.23L335.234,132.216ZM345.783,128.596C348.413,125.579 351.439,124.384 355.332,123.977L355.332,133.23L345.783,133.23L345.783,128.596ZM356.332,123.89C356.741,123.862 357.16,123.84 357.588,123.825C358.453,123.794 359.259,123.736 360.008,123.681L364.028,123.681C364.723,123.812 365.338,124.062 365.881,124.5L365.881,133.23L356.332,133.23L356.332,123.89ZM371.799,134.23C373.074,135.249 374.578,135.794 376.355,135.794L376.429,135.795L376.429,143.779L366.881,143.779L366.881,134.23L371.799,134.23ZM382.116,144.779C382.577,145.38 383.128,145.804 383.824,145.943C384.638,146.106 385.737,146.105 386.978,146.04L386.978,154.328L377.429,154.328L377.429,144.779L382.116,144.779ZM387.978,145.978C391.259,145.75 395.2,145.289 397.527,146.199L397.527,154.328L387.978,154.328L387.978,145.978ZM385.845,165.877C383.213,167.156 380.358,168.011 377.429,167.988L377.429,165.877L385.845,165.877ZM376.429,167.949C374.524,167.846 371.202,167.685 366.881,167.528L366.881,165.877L376.429,165.877L376.429,167.949ZM365.881,167.492C363.05,167.392 359.832,167.295 356.332,167.216L356.332,165.877L365.881,165.877L365.881,167.492ZM355.332,167.194C352.323,167.13 349.118,167.079 345.783,167.051L345.783,165.877L355.332,165.877L355.332,167.194ZM344.783,167.044C341.689,167.022 338.489,167.021 335.234,167.047L335.234,165.877L344.783,165.877L344.783,167.044ZM334.234,167.055C331.083,167.086 327.885,167.142 324.685,167.23L324.685,165.877L334.234,165.877L334.234,167.055ZM323.685,167.258C320.485,167.353 317.287,167.481 314.136,167.648L314.136,165.877L323.685,165.877L323.685,167.258ZM313.136,167.703C309.881,167.884 306.681,168.109 303.587,168.383L303.587,165.877L313.136,165.877L313.136,167.703ZM302.587,168.474C299.252,168.784 296.048,169.153 293.038,169.591L293.038,165.877L302.587,165.877L302.587,168.474ZM292.038,169.74C289.812,170.081 287.7,170.46 285.728,170.883C285.908,171.081 284.055,171.867 282.489,172.445L282.489,165.877L292.038,165.877L292.038,169.74ZM271.94,194.647C274.703,193.88 278,192.99 281.489,192.098L281.489,196.524L271.94,196.524L271.94,194.647ZM282.489,191.844C285.625,191.052 288.888,190.268 292.038,189.581L292.038,196.524L282.489,196.524L282.489,191.844ZM293.038,189.365C296.5,188.627 299.792,188.017 302.587,187.656L302.587,196.524L293.038,196.524L293.038,189.365ZM303.587,187.535C306.595,187.197 308.921,187.192 310.096,187.691C310.096,187.691 310.268,187.426 310.573,186.975L313.136,186.975L313.136,196.524L303.587,196.524L303.587,187.535ZM311.258,185.975C311.765,185.246 312.41,184.34 313.136,183.37L313.136,185.975L311.258,185.975ZM335.234,181.469C337.908,182.821 340.767,184.346 343.624,185.975L335.234,185.975L335.234,181.469ZM345.783,187.228C349.135,189.206 352.42,191.306 355.332,193.416L355.332,196.524L345.783,196.524L345.783,187.228ZM360.465,197.524C363.392,200.171 365.388,202.715 365.823,204.926C365.823,204.926 365.844,204.983 365.881,205.089L365.881,207.073L356.332,207.073L356.332,197.524L360.465,197.524ZM365.881,212.338C365.464,213.067 364.833,213.694 363.908,214.118C359.911,215.95 357.218,213.872 356.332,217.579L356.332,208.073L365.881,208.073L365.881,212.338ZM356.332,226.331C356.35,226.763 356.353,227.187 356.332,227.61L356.332,226.331ZM355.332,231.38C354.852,232.349 354.162,233.405 353.184,234.609C352.356,235.627 351.602,237.038 350.915,238.72L345.783,238.72L345.783,229.171L355.332,229.171L355.332,231.38ZM345.92,260.818L345.783,261.774L345.783,260.818L345.92,260.818ZM344.265,271.367C343.34,274.281 341.388,277.678 339.063,280.916L335.234,280.916L335.234,271.367L344.265,271.367ZM338.33,281.916C337.335,283.245 336.287,284.536 335.234,285.741L335.234,281.916L338.33,281.916ZM334.234,286.857C332.519,288.725 330.83,290.328 329.37,291.465L324.685,291.465L324.685,281.916L334.234,281.916L334.234,286.857ZM327.953,292.465C327.354,292.837 326.82,293.091 326.373,293.208C325.819,293.353 325.252,293.476 324.685,293.581L324.685,292.465L327.953,292.465ZM323.685,293.749C320.107,294.288 316.798,294.165 316.798,294.165C316.798,294.165 316.416,293.443 315.7,292.465L323.685,292.465L323.685,293.749ZM314.914,291.465C314.676,291.182 314.416,290.893 314.136,290.604L314.136,281.916L323.685,281.916L323.685,291.465L314.914,291.465ZM313.136,289.663C312.175,288.842 311.043,288.108 309.763,287.672L309.463,288.586C307.702,288.274 305.765,288.342 303.587,288.668L303.587,281.916L313.136,281.916L313.136,289.663ZM302.587,288.833C299.822,289.326 296.678,290.184 293.038,291.184L293.038,281.916L302.587,281.916L302.587,288.833ZM286.795,270.367C289.405,269.711 291.11,269.251 291.27,269.127L292.038,268.529L292.038,270.367L286.795,270.367ZM293.038,267.786C293.44,267.511 293.807,267.302 294.199,267.152C295.695,265.837 297.648,265.632 297.648,265.632L300.677,267.567C301.547,267.874 302.045,268.041 302.587,268.4L302.587,270.367L293.038,270.367L293.038,267.786ZM303.587,269.222C303.766,269.391 303.962,269.584 304.182,269.806L304.456,269.981L304.548,270.018C304.63,269.729 305.653,266.134 307.059,260.818L313.136,260.818L313.136,270.367L303.587,270.367L303.587,269.222ZM307.323,259.818C308.067,256.99 308.903,253.736 309.756,250.269L313.136,250.269L313.136,259.818L307.323,259.818ZM310.001,249.269C310.753,246.186 311.513,242.955 312.23,239.72L313.136,239.72L313.136,249.269L310.001,249.269ZM312.45,238.72C312.685,237.648 312.914,236.577 313.136,235.513L313.136,238.72L312.45,238.72ZM314.136,230.493C314.219,230.05 314.301,229.609 314.381,229.171L323.685,229.171L323.685,238.72L314.136,238.72L314.136,230.493ZM314.561,228.171C315.179,224.686 315.658,221.429 315.921,218.622L323.685,218.622L323.685,228.171L314.561,228.171ZM316.007,217.622C316.286,214.03 316.164,211.283 315.458,209.905C315.379,209.75 315.287,209.605 315.182,209.468C314.906,209.322 314.564,209.214 314.136,209.141L314.136,208.073L323.685,208.073L323.685,217.622L316.007,217.622ZM313.136,209.04C312.935,209.031 312.721,209.025 312.494,209.023C310.032,209.006 306.952,209.297 303.587,209.79L303.587,208.073L313.136,208.073L313.136,209.04ZM302.587,209.941C299.525,210.418 296.262,211.047 293.038,211.752L293.038,208.073L302.587,208.073L302.587,209.941ZM292.038,211.973C288.696,212.722 285.423,213.543 282.489,214.351L282.489,208.073L292.038,208.073L292.038,211.973ZM293.038,230.522C296.063,231.682 298.704,233.181 300.74,234.118L302.587,235.834L302.587,238.72L293.038,238.72L293.038,230.522ZM303.587,236.69C304.428,237.408 305.114,238.082 305.651,238.72L303.587,238.72L303.587,236.69ZM306.387,239.72C308.003,242.303 306.925,244.324 303.587,246.488L303.587,239.72L306.387,239.72ZM302.587,247.102C301.929,247.486 301.202,247.877 300.41,248.279C299.626,248.622 298.878,248.951 298.16,249.269L293.038,249.269L293.038,239.72L302.587,239.72L302.587,247.102ZM295.917,250.269C294.908,250.724 293.955,251.16 293.038,251.59L293.038,250.269L295.917,250.269ZM293.038,313.987C294.902,315.431 296.691,316.803 298.312,318.025C298.647,318.145 299.041,318.259 299.519,318.371C301.081,318.734 300.916,319.011 302.587,320.29L302.587,320.372C302.286,320.46 302.031,320.539 301.807,320.61C302.078,320.805 302.338,320.991 302.587,321.167L302.587,323.112L293.038,323.112L293.038,313.987ZM303.587,321.863C303.874,322.059 304.139,322.235 304.38,322.391L304.558,322.344C305.796,322.493 305.95,322.547 306.86,322.426C308.06,321.497 310.292,319.754 313.136,317.463L313.136,323.112L303.587,323.112L303.587,321.863ZM314.136,316.654C315.314,315.699 316.58,314.663 317.908,313.563L323.685,313.563L323.685,323.112L314.136,323.112L314.136,316.654ZM319.111,312.563C320.583,311.334 322.118,310.035 323.685,308.687L323.685,312.563L319.111,312.563ZM324.685,307.824C326.479,306.268 328.305,304.655 330.113,303.014L334.234,303.014L334.234,312.563L324.685,312.563L324.685,307.824ZM331.209,302.014C332.229,301.078 333.24,300.135 334.234,299.191L334.234,302.014L331.209,302.014ZM335.234,298.234C337.25,296.292 339.18,294.353 340.946,292.465L344.783,292.465L344.783,302.014L335.234,302.014L335.234,298.234ZM341.871,291.465C342.913,290.323 343.89,289.203 344.783,288.116L344.783,291.465L341.871,291.465ZM345.783,286.867C347.164,285.094 348.292,283.427 349.085,281.916L355.332,281.916L355.332,291.465L345.783,291.465L345.783,286.867ZM349.57,280.916C349.946,280.068 350.199,279.278 350.311,278.558C350.311,278.558 352.46,277.944 355.332,277.506L355.332,280.916L349.57,280.916ZM356.332,277.366C359.437,276.967 363.139,276.849 365.881,277.874L365.881,280.916L356.332,280.916L356.332,277.366ZM377.429,289.969C377.607,290.279 377.76,290.624 377.887,291.006C377.935,291.15 377.988,291.303 378.044,291.465L377.429,291.465L377.429,289.969ZM376.429,307.7C376.224,307.884 376.008,308.064 375.781,308.241C373.49,310.022 371.602,311.402 369.883,312.563L366.881,312.563L366.881,303.014L376.429,303.014L376.429,307.7ZM355.332,320.305C353.109,321.185 350.467,322.147 347.701,323.112L345.783,323.112L345.783,313.563L355.332,313.563L355.332,320.305ZM344.783,324.117C341.464,325.247 338.119,326.345 335.234,327.286L335.234,324.112L344.783,324.112L344.783,324.117ZM334.234,327.612C332.143,328.293 330.346,328.875 329.054,329.306C327.411,329.854 325.949,330.143 324.685,330.27L324.685,324.112L334.234,324.112L334.234,327.612ZM323.685,330.341C321.97,330.409 320.704,330.18 319.941,329.975C319.906,330.035 319.873,330.101 319.841,330.171C320.599,330.66 321.915,331.502 323.685,332.616L323.685,333.661L314.136,333.661L314.136,324.112L323.685,324.112L323.685,330.341ZM324.685,333.243L325.352,333.661L324.685,333.661L324.685,333.243ZM326.961,334.661C329.061,335.962 331.513,337.462 334.234,339.094L334.234,344.21L324.685,344.21L324.685,334.661L326.961,334.661ZM335.234,339.693C337.627,341.122 340.21,342.642 342.93,344.21L335.234,344.21L335.234,339.693ZM344.672,345.21L344.783,345.273L344.783,354.759L335.234,354.759L335.234,345.21L344.672,345.21ZM345.783,345.842C348.849,347.584 352.055,349.365 355.332,351.127L355.332,354.759L345.783,354.759L345.783,345.842ZM356.332,351.663C358.286,352.707 360.262,353.743 362.246,354.759L356.332,354.759L356.332,351.663ZM364.216,355.759C364.77,356.038 365.326,356.315 365.881,356.591L365.881,365.308L356.332,365.308L356.332,355.759L364.216,355.759ZM366.881,357.085C370.095,358.665 373.299,360.167 376.429,361.541L376.429,365.308L366.881,365.308L366.881,357.085ZM377.429,361.977C380.288,363.213 383.079,364.336 385.754,365.308L377.429,365.308L377.429,361.977ZM388.63,366.308C391.83,367.368 394.827,368.174 397.527,368.652L397.527,375.857L387.978,375.857L387.978,366.308L388.63,366.308ZM398.527,368.817L398.761,368.851C398.761,368.851 403.971,367.707 408.076,368.836L408.076,375.857L398.527,375.857L398.527,368.817ZM412.541,376.857C412.437,377.124 412.358,377.277 412.358,377.277C412.358,377.277 415.457,377.18 418.625,377.606L418.625,386.405L409.076,386.405L409.076,376.857L412.541,376.857ZM419.625,377.759C420.572,377.923 421.496,378.139 422.316,378.426C425.35,379.488 428.145,379.949 429.174,380.095L429.174,386.405L419.625,386.405L419.625,377.759ZM430.174,380.506C431.724,381.418 436.084,383.735 439.723,383.309L439.723,383.47C438.536,383.975 435.67,385.161 432.079,386.405L430.174,386.405L430.174,380.506ZM418.625,389.94C416.747,390.22 414.945,390.361 413.315,390.299C413.315,390.299 414.081,393.172 418.486,393.363L418.625,393.369L418.625,396.954L409.076,396.954L409.076,387.405L418.625,387.405L418.625,389.94ZM419.625,393.421C422.954,393.613 427.26,394.027 429.174,394.219L429.174,395.922C428.89,396.246 428.53,396.598 428.076,396.954L419.625,396.954L419.625,393.421ZM426.534,397.954C425.239,398.65 423.499,399.285 421.167,399.683C420.666,399.768 420.151,399.842 419.625,399.906L419.625,397.954L426.534,397.954ZM418.625,400.017C415.468,400.331 412.022,400.371 409.076,400.597L409.076,397.954L418.625,397.954L418.625,400.017ZM408.076,400.684C404.464,401.038 401.825,401.785 401.825,403.896C401.825,405.321 401.584,406.526 401.259,407.503L398.527,407.503L398.527,397.954L408.076,397.954L408.076,400.684ZM354.197,407.503C351.726,405.861 348.879,403.771 345.783,401.361L345.783,397.954L355.332,397.954L355.332,407.503L354.197,407.503ZM344.783,400.578C343.715,399.737 342.62,398.861 341.503,397.954L344.783,397.954L344.783,400.578ZM340.277,396.954C338.633,395.607 336.947,394.2 335.234,392.747L335.234,387.405L344.783,387.405L344.783,396.954L340.277,396.954ZM334.234,391.897C332.521,390.436 330.785,388.934 329.041,387.405L334.234,387.405L334.234,391.897ZM327.903,386.405C326.831,385.461 325.757,384.508 324.685,383.549L324.685,376.857L334.234,376.857L334.234,386.405L327.903,386.405ZM323.685,382.653C321.542,380.729 319.41,378.788 317.316,376.857L323.685,376.857L323.685,382.653ZM316.235,375.857C315.53,375.203 314.83,374.552 314.136,373.903L314.136,366.308L323.685,366.308L323.685,375.857L316.235,375.857ZM313.136,372.966C311.203,371.152 309.323,369.363 307.519,367.625L307.305,367.721C306.732,367.238 306.188,366.766 305.67,366.308L313.136,366.308L313.136,372.966ZM304.56,365.308C304.224,365 303.9,364.699 303.587,364.405L303.587,355.759L313.136,355.759L313.136,365.308L304.56,365.308ZM302.587,363.455C297.675,358.739 295.79,356.263 293.038,358.304L293.038,355.759L302.587,355.759L302.587,363.455ZM344.783,155.328L344.783,164.877L335.234,164.877L335.234,155.328L344.783,155.328ZM376.429,155.328L376.429,164.877L366.881,164.877L366.881,155.328L376.429,155.328ZM292.038,113.132L292.038,122.681L282.489,122.681L282.489,113.132L292.038,113.132ZM292.038,102.584L292.038,112.132L282.489,112.132L282.489,102.584L292.038,102.584ZM282.489,134.23L292.038,134.23L292.038,143.779L282.489,143.779L282.489,134.23ZM282.489,155.328L292.038,155.328L292.038,164.877L282.489,164.877L282.489,155.328ZM282.489,144.779L292.038,144.779L292.038,154.328L282.489,154.328L282.489,144.779ZM282.489,123.681L292.038,123.681L292.038,133.23L282.489,133.23L282.489,123.681ZM355.332,134.23L355.332,143.779L345.783,143.779L345.783,134.23L355.332,134.23ZM344.783,134.23L344.783,143.779L335.234,143.779L335.234,134.23L344.783,134.23ZM365.881,134.23L365.881,143.779L356.332,143.779L356.332,134.23L365.881,134.23ZM293.038,144.779L302.587,144.779L302.587,154.328L293.038,154.328L293.038,144.779ZM293.038,155.328L302.587,155.328L302.587,164.877L293.038,164.877L293.038,155.328ZM334.234,134.23L334.234,143.779L324.685,143.779L324.685,134.23L334.234,134.23ZM334.234,155.328L334.234,164.877L324.685,164.877L324.685,155.328L334.234,155.328ZM386.978,155.328L386.978,164.877L377.429,164.877L377.429,155.328L386.978,155.328ZM365.881,155.328L365.881,164.877L356.332,164.877L356.332,155.328L365.881,155.328ZM355.332,155.328L355.332,164.877L345.783,164.877L345.783,155.328L355.332,155.328ZM314.136,155.328L323.685,155.328L323.685,164.877L314.136,164.877L314.136,155.328ZM303.587,155.328L313.136,155.328L313.136,164.877L303.587,164.877L303.587,155.328ZM334.234,144.779L334.234,154.328L324.685,154.328L324.685,144.779L334.234,144.779ZM303.587,144.779L313.136,144.779L313.136,154.328L303.587,154.328L303.587,144.779ZM365.881,144.779L365.881,154.328L356.332,154.328L356.332,144.779L365.881,144.779ZM323.685,144.779L323.685,154.328L314.136,154.328L314.136,144.779L323.685,144.779ZM344.783,144.779L344.783,154.328L335.234,154.328L335.234,144.779L344.783,144.779ZM355.332,144.779L355.332,154.328L345.783,154.328L345.783,144.779L355.332,144.779ZM408.076,396.954L398.527,396.954L398.527,387.405L408.076,387.405L408.076,396.954ZM324.685,313.563L334.234,313.563L334.234,323.112L324.685,323.112L324.685,313.563ZM324.685,366.308L334.234,366.308L334.234,375.857L324.685,375.857L324.685,366.308ZM324.685,355.759L334.234,355.759L334.234,365.308L324.685,365.308L324.685,355.759ZM324.685,345.21L334.234,345.21L334.234,354.759L324.685,354.759L324.685,345.21ZM408.076,386.405L398.527,386.405L398.527,376.857L408.076,376.857L408.076,386.405ZM335.234,303.014L344.783,303.014L344.783,312.563L335.234,312.563L335.234,303.014ZM335.234,366.308L344.783,366.308L344.783,375.857L335.234,375.857L335.234,366.308ZM366.881,407.503L366.881,397.954L376.429,397.954L376.429,407.503L366.881,407.503ZM377.429,407.503L377.429,397.954L386.978,397.954L386.978,407.503L377.429,407.503ZM335.234,355.759L344.783,355.759L344.783,365.308L335.234,365.308L335.234,355.759ZM397.527,396.954L387.978,396.954L387.978,387.405L397.527,387.405L397.527,396.954ZM397.527,386.405L387.978,386.405L387.978,376.857L397.527,376.857L397.527,386.405ZM397.527,407.503L387.978,407.503L387.978,397.954L397.527,397.954L397.527,407.503ZM356.332,407.503L356.332,397.954L365.881,397.954L365.881,407.503L356.332,407.503ZM386.978,375.857L377.429,375.857L377.429,366.308L386.978,366.308L386.978,375.857ZM345.783,292.465L355.332,292.465L355.332,302.014L345.783,302.014L345.783,292.465ZM345.783,366.308L355.332,366.308L355.332,375.857L345.783,375.857L345.783,366.308ZM386.978,386.405L377.429,386.405L377.429,376.857L386.978,376.857L386.978,386.405ZM335.234,313.563L344.783,313.563L344.783,323.112L335.234,323.112L335.234,313.563ZM356.332,396.954L356.332,387.405L365.881,387.405L365.881,396.954L356.332,396.954ZM345.783,303.014L355.332,303.014L355.332,312.563L345.783,312.563L345.783,303.014ZM345.783,396.954L345.783,387.405L355.332,387.405L355.332,396.954L345.783,396.954ZM345.783,355.759L355.332,355.759L355.332,365.308L345.783,365.308L345.783,355.759ZM335.234,376.857L344.783,376.857L344.783,386.405L335.234,386.405L335.234,376.857ZM345.783,376.857L355.332,376.857L355.332,386.405L345.783,386.405L345.783,376.857ZM356.332,386.405L356.332,376.857L365.881,376.857L365.881,386.405L356.332,386.405ZM356.332,292.465L365.881,292.465L365.881,302.014L356.332,302.014L356.332,292.465ZM386.978,396.954L377.429,396.954L377.429,387.405L386.978,387.405L386.978,396.954ZM376.429,375.857L366.881,375.857L366.881,366.308L376.429,366.308L376.429,375.857ZM356.332,366.308L365.881,366.308L365.881,375.857L356.332,375.857L356.332,366.308ZM376.429,302.014L366.881,302.014L366.881,292.465L376.429,292.465L376.429,302.014ZM376.429,386.405L366.881,386.405L366.881,376.857L376.429,376.857L376.429,386.405ZM356.332,303.014L365.881,303.014L365.881,312.563L356.332,312.563L356.332,303.014ZM366.881,396.954L366.881,387.405L376.429,387.405L376.429,396.954L366.881,396.954ZM293.038,334.661L302.587,334.661L302.587,344.21L293.038,344.21L293.038,334.661ZM293.038,345.21L302.587,345.21L302.587,354.759L293.038,354.759L293.038,345.21ZM293.038,324.112L302.587,324.112L302.587,333.661L293.038,333.661L293.038,324.112ZM314.136,334.661L323.685,334.661L323.685,344.21L314.136,344.21L314.136,334.661ZM314.136,355.759L323.685,355.759L323.685,365.308L314.136,365.308L314.136,355.759ZM314.136,345.21L323.685,345.21L323.685,354.759L314.136,354.759L314.136,345.21ZM303.587,324.112L313.136,324.112L313.136,333.661L303.587,333.661L303.587,324.112ZM303.587,345.21L313.136,345.21L313.136,354.759L303.587,354.759L303.587,345.21ZM303.587,334.661L313.136,334.661L313.136,344.21L303.587,344.21L303.587,334.661ZM324.685,186.975L334.234,186.975L334.234,196.524L324.685,196.524L324.685,186.975ZM324.685,197.524L334.234,197.524L334.234,207.073L324.685,207.073L324.685,197.524ZM324.685,229.171L334.234,229.171L334.234,238.72L324.685,238.72L324.685,229.171ZM324.685,271.367L334.234,271.367L334.234,280.916L324.685,280.916L324.685,271.367ZM324.685,250.269L334.234,250.269L334.234,259.818L324.685,259.818L324.685,250.269ZM324.685,239.72L334.234,239.72L334.234,249.269L324.685,249.269L324.685,239.72ZM324.685,218.622L334.234,218.622L334.234,228.171L324.685,228.171L324.685,218.622ZM324.685,260.818L334.234,260.818L334.234,270.367L324.685,270.367L324.685,260.818ZM324.685,208.073L334.234,208.073L334.234,217.622L324.685,217.622L324.685,208.073ZM335.234,197.524L344.783,197.524L344.783,207.073L335.234,207.073L335.234,197.524ZM335.234,208.073L344.783,208.073L344.783,217.622L335.234,217.622L335.234,208.073ZM335.234,250.269L344.783,250.269L344.783,259.818L335.234,259.818L335.234,250.269ZM335.234,229.171L344.783,229.171L344.783,238.72L335.234,238.72L335.234,229.171ZM335.234,239.72L344.783,239.72L344.783,249.269L335.234,249.269L335.234,239.72ZM335.234,186.975L344.783,186.975L344.783,196.524L335.234,196.524L335.234,186.975ZM335.234,218.622L344.783,218.622L344.783,228.171L335.234,228.171L335.234,218.622ZM345.783,208.073L355.332,208.073L355.332,217.622L345.783,217.622L345.783,208.073ZM345.783,197.524L355.332,197.524L355.332,207.073L345.783,207.073L345.783,197.524ZM282.489,197.524L292.038,197.524L292.038,207.073L282.489,207.073L282.489,197.524ZM293.038,197.524L302.587,197.524L302.587,207.073L293.038,207.073L293.038,197.524ZM293.038,271.367L302.587,271.367L302.587,280.916L293.038,280.916L293.038,271.367ZM314.136,271.367L323.685,271.367L323.685,280.916L314.136,280.916L314.136,271.367ZM314.136,239.72L323.685,239.72L323.685,249.269L314.136,249.269L314.136,239.72ZM314.136,186.975L323.685,186.975L323.685,196.524L314.136,196.524L314.136,186.975ZM314.136,197.524L323.685,197.524L323.685,207.073L314.136,207.073L314.136,197.524ZM314.136,260.818L323.685,260.818L323.685,270.367L314.136,270.367L314.136,260.818ZM314.136,250.269L323.685,250.269L323.685,259.818L314.136,259.818L314.136,250.269ZM303.587,197.524L313.136,197.524L313.136,207.073L303.587,207.073L303.587,197.524ZM303.587,271.367L313.136,271.367L313.136,280.916L303.587,280.916L303.587,271.367ZM46.724,299.727C47.996,298.377 47.938,298.479 50.228,296.228C58.989,287.617 59.783,279.554 63.528,286.482C70.429,299.25 67.295,302.454 68.164,304.706C69.399,307.906 94.705,288.14 82.372,300.389C77.062,305.664 77.931,306.269 76.017,309.171C74.025,312.191 75.4,312.572 74.666,314.579C73.464,317.865 71.719,317.044 66.549,331.521C62.19,343.727 46.558,346.238 40.633,340.363C28.972,328.8 32.021,324.127 31.661,321.489C29.984,309.211 37.444,308.215 46.724,299.727ZM397.512,113.132L397.512,122.681L387.978,122.681L387.978,113.132L397.512,113.132ZM417.532,134.395L417.532,143.944L407.998,143.944L407.998,134.395L417.532,134.395ZM428.124,123.681L428.124,133.23L418.59,133.23L418.59,123.681L428.124,123.681ZM452.217,123.681L452.217,133.23L442.683,133.23L442.683,123.681L452.217,123.681ZM428.124,155.328L428.124,164.877L418.59,164.877L418.59,155.328L428.124,155.328ZM429.038,355.759L429.038,365.308L419.504,365.308L419.504,355.759L429.038,355.759ZM439.723,366.308L439.723,375.857L430.189,375.857L430.189,366.308L439.723,366.308ZM462.654,366.308L462.654,375.857L453.12,375.857L453.12,366.308L462.654,366.308ZM452.217,397.954L452.217,407.503L442.683,407.503L442.683,397.954L452.217,397.954ZM386.964,123.681L386.964,133.23L377.429,133.23L377.429,123.681L386.964,123.681Z"/>
</svg>
