<?xml version='1.0' encoding='UTF-8'?>
<svg xmlns="http://www.w3.org/2000/svg" width="100%" height="100%" viewBox="0 0 513 513" version="1.1" xml:space="preserve" style="fill-rule:evenodd;clip-rule:evenodd;stroke-linejoin:round;stroke-miterlimit:2;">
    <g id="背景">
        <path d="M248.21,277.089C257.026,269.336 257.601,269.51 257.314,268.554C256.877,267.1 221.199,267.686 218.559,268.731C216.229,269.653 215.252,267.957 213.476,268.327C202.153,270.681 201.895,267.607 190.539,269.766C190.225,269.826 190.243,269.778 186.546,269.927C181.989,270.147 182.069,270.385 177.52,270.615C171.178,271.971 162.799,272.619 161.511,272.719C102.397,277.289 92.59,294.984 66.737,280.099C61.047,276.823 61.501,276.234 55.744,273.098C50.304,270.136 50.83,263.744 54.514,263.629C66.183,263.263 68.769,266.187 83.57,262.792C86.953,262.016 88.263,261.715 126.443,256.135C132.753,255.213 134.759,255.076 135.486,255.026C138.349,254.829 144.685,253.587 145.48,253.431C146.806,253.171 146.37,252.738 146.649,251.444L146.564,249.589C150.584,246.778 149.549,240.953 147.486,241.23C125.726,244.151 110.922,256.486 93.886,241.085C81.202,229.617 96.81,229.097 107.596,224.843C109.812,223.97 148.901,208.058 149.605,205.53C151.836,197.528 124.659,212.668 112.447,209.669C106.23,208.143 101.924,202.41 100.869,207.576C99.786,212.88 96.285,211.405 94.852,212.843C90.09,217.621 83.591,211.004 81.335,209.814C80.228,209.231 77.531,207.809 69.967,199.073C69.361,198.373 59.13,180.683 59.057,176.511C58.833,163.579 55.648,160.463 54.028,137.509C53.444,129.228 51.465,122.848 51.082,121.612C48.186,112.276 53.833,111.939 62.685,116.09C65.81,117.556 66.482,116.127 75.179,121.942C81.902,126.437 86.202,133.006 86.945,134.141C89.773,138.461 88.285,125.428 102.502,119.504C130.411,107.875 192.826,100.375 193.441,100.246C199.206,99.039 236.775,97.095 240.712,94.874C250.416,89.399 254.855,90.765 266.482,91.978C278.311,93.212 284.504,97.248 285.867,98.136C286.143,98.315 288.461,99.08 288.689,99.156C288.363,99.361 288.76,100.7 286.516,100.525C285.096,100.413 281.379,100.87 276.626,100.247C276.656,96.826 276.865,96.769 276.658,96.559C276.59,96.489 274.557,96.443 274.545,96.504C274.284,97.837 274.919,99.244 274.657,100.576C269.134,100.445 269.134,101.052 269.134,101.5C269.134,101.96 269.134,102.713 274.84,102.197C274.542,104.313 274.461,109.955 276.298,107.394C276.392,107.263 276.447,106.562 276.453,106.488C276.695,103.413 275.674,103.024 275.535,102.407C277.201,102.445 277.113,102.532 285.507,102.485C286.129,106.996 285.682,110.918 285.599,111.646C284.822,111.619 276.392,111.318 275.877,111.93C274.186,113.943 275.941,113.424 286.071,113.609C285.957,114.452 285.835,115.424 285.704,116.538C285.472,118.522 285.59,120.176 285.613,120.492C285.71,121.865 286.353,120.509 287.686,120.539C287.695,120.399 287.737,116.804 287.65,113.642C290.441,113.709 293.79,113.832 297.778,114.064C296.814,118.404 296.996,118.379 296.664,122.787L296.096,123.146C294.845,123.061 280.441,122.09 280.421,123.488C280.391,125.625 284.741,124.173 285.628,124.379C290.88,125.597 290.886,124.934 296.221,124.835L296.798,125.049C296.952,128.583 296.437,129.246 299.704,130.663C297.642,133.269 297.685,133.28 297.477,133.478C295.137,135.713 287.402,132.868 286.556,134.53C285.034,137.518 300.271,136.009 307.475,135.714L307.894,136.5C308.067,140.65 307.74,140.585 308.606,144.631L307.665,145.595C306.839,145.557 297.806,145.138 297.33,145.317C295.197,146.118 298.282,148.494 307.853,147.062C308.968,149.095 308.568,149.138 308.498,151.5C308.442,153.382 308.429,153.356 308.5,153.5C308.93,154.377 309.544,153.633 309.97,154.5L308.846,155.964C308.41,156.034 308.204,156.665 307.769,156.734C302.633,157.552 302.597,155.487 297.517,156.561C287.265,158.728 315.469,158.582 322.681,158.271C323.56,158.286 327.505,158.351 333.673,158.337L333.251,160.144C331.702,160.631 303.214,163.59 300.6,163.862L299.484,163.907C297.455,164.134 294.034,164.609 293.56,164.675C291.93,166.66 291.839,166.501 289.5,167.497C286.433,167.793 286.546,168.164 283.504,168.482C283.43,168.378 282.798,165.299 277.325,167.276C276.684,167.398 274.347,167.634 274.426,168.488C274.599,170.355 275.49,169.237 277.991,169.091L278.711,170.419C280.604,170.807 280.54,170.681 282.473,170.385C285.944,169.853 285.593,171.089 286.595,171.907C286.107,172.006 281.08,173.029 280.48,173.089C277.695,173.368 276.532,172.863 273.101,182.35C269.182,193.187 260.234,200.142 268.413,196.227C274.715,193.211 284.499,192.564 289.515,190.533C292.274,193.095 292.559,192.57 296.38,192.724L297.346,192.886C297.366,193.495 296.647,199.246 297.188,199.617C301.135,202.321 297.652,197.26 299.655,192.945L307.313,192.752L308.711,193.165C308.145,195.567 307.716,197.446 308.615,201.69L307.794,201.919C306.908,201.984 306.971,201.52 296.685,201.886C288.445,201.808 288.483,201.527 286.156,202.117C284.333,201.56 284.399,201.81 282.458,201.7C280.729,201.735 276.595,201.639 276.51,201.648C274.267,201.874 274.334,204.178 276.574,203.738C280.485,202.971 280.493,204.002 284.486,203.541L285.639,203.377C290.773,205.431 290.914,204.513 296.357,203.67C306.963,204.354 306.965,203.938 307.882,204.039C309.053,204.2 309.032,204.152 322.652,204.216L323.199,205.805C322.762,208.47 322.739,208.404 323.127,211.119L322.671,212.753C321.575,212.947 321.64,212.92 320.526,212.814C318.292,212.602 318.342,213.058 317.698,214.792L316.63,214.585C316.168,210.458 316.717,209.053 312.494,209.023C303.286,208.958 285.419,213.217 276.402,216.164C253.799,223.553 252.531,223.161 250.492,222.53C239.016,218.981 244.795,210.117 230.553,201.431C227.119,199.337 228.598,192.744 223.581,194.688C221.645,195.439 221.317,194.117 198.417,201.062C197.741,201.267 197.706,201.046 189.758,202.812C186.275,206.163 187.637,206.778 188.049,211.58C188.14,212.647 188.583,213.881 201.43,211.171C207.646,209.859 215.383,204.101 234.536,213.429C239.762,215.975 246.768,222.677 242.484,227.486C235.441,235.395 226.907,228.015 204.562,232.827C198.617,234.107 186.289,232.471 187.355,238.519C188.448,244.72 185.301,248.868 191.519,247.63C198.547,246.231 214.872,245.657 221.461,244.305C225.631,243.449 240.058,244.105 246.709,240.903C250.074,239.283 250.609,240.853 253.634,238.672C254.07,238.358 269.388,236.555 274.543,232.551C284.783,224.599 295.092,231.517 300.74,234.118C300.212,234.514 300.255,235.421 299.727,235.817C299.657,235.87 282.822,234.306 285.747,237.211C286.36,237.819 286.599,236.472 296.542,237.432C299.913,237.758 300.014,237.934 302.87,236.098C309.578,241.48 308.057,244.404 300.41,248.279C284.969,255.044 283.479,256.123 252.651,276.637L252.479,278.694C250.038,279.228 250.163,278.61 248.21,277.089ZM186.5,266.293C186.69,266.532 185.496,267.795 187.695,267.792C187.844,267.792 187.708,267.49 189.507,267.364C197.483,266.809 197.471,267.114 198.156,267.01C204.483,266.049 193.603,263.998 186.5,266.293ZM202.457,196.082C203.65,196.451 203.889,197.826 204.246,196.636C204.618,195.398 203.732,196.088 202.457,196.082ZM263.453,194.691C261.894,194.925 261.046,194.966 261.93,196.185C262.83,197.426 262.728,196.059 263.453,194.691ZM148.966,162.5C148.721,150.601 149.199,150.12 148.261,149.972C146.683,149.724 147.078,150.595 144.201,155.317C136.911,167.282 139.084,168.048 139.744,173.489C139.818,174.1 139.487,173.962 136.036,180.236C134.023,183.895 123.838,182.087 123.349,181.888C110.772,176.751 109.876,162.978 108.586,158.468C107.688,155.33 104.003,152.084 102.632,149.436C102.349,148.889 101.493,147.237 108.472,144.431C109.54,144.002 109.926,143.846 122.598,147.163C131.082,149.384 131.627,157.071 137.57,153.623C149.941,146.448 150.257,144.01 145.516,130.492C144.607,127.9 143.475,129.535 126.587,133.87C116.143,136.551 102.491,129.449 97.434,130.099C84.609,131.747 101.445,189.622 102.627,190.311C103.103,190.589 142.314,183.085 148.272,181.07C148.722,180.918 149.473,180.852 148.966,162.5ZM107.754,228.166C110.915,228.195 147.603,220.379 148.684,219.96C151.012,219.059 149.894,214.111 149.337,213.703C148.037,212.749 132.07,218.187 130.605,218.766C117.11,224.101 109.996,224.989 107.754,228.166ZM218.207,265.144C219.824,264.643 219.728,264.671 221.519,264.616C223.016,264.57 222.837,262.975 222.412,262.692C221.472,262.066 221.46,262.601 219.332,263.719C211.681,262.676 210.283,264.059 209.735,264.602C210.74,267.087 211.581,265.368 215.595,265.276C216.962,265.245 216.886,265.299 218.207,265.144ZM197.443,197.712L194.439,198.27C195.028,198.621 195.256,199.419 195.845,199.77C196.726,200.296 196.506,199.564 197.443,197.712ZM206.333,264.747C206.022,264.708 199.714,263.913 202.719,266.247C203.078,266.526 206.137,266.302 206.269,266.17C206.349,266.089 206.269,266.17 206.333,264.747ZM196.25,169.031C195.693,169.445 193.106,171.368 188.84,173.536C189.119,173.991 189.647,174.854 195.485,174.08C208.774,172.32 208.863,168.152 221.549,172.37C229.194,174.912 231.376,178.116 232.062,173.417C232.497,170.44 235.215,171.962 236.706,166.556C237.368,164.152 246.71,139.682 248.166,123.45C248.336,121.558 250.424,118.622 245.46,117.968C240.219,117.278 224.716,115.237 179.538,122.596C171.014,123.985 192.449,126.741 191.933,142.503C191.763,147.712 189.173,147.174 189.026,154.49C188.999,155.854 186.372,163.1 189.446,161.431C190.293,160.971 197.506,149.37 198.172,148.299C204.313,138.423 203.169,135.495 202.742,134.405C202.207,133.036 198.82,129.453 206.412,127.175C211.115,125.764 240.292,136.988 234.667,149.585C232.368,154.733 224.967,152.418 214.401,162.401C209.841,166.71 209.34,165.907 201.447,169.338L198.561,170.85C196.88,171.358 197.183,170.497 196.25,169.031ZM264.375,184.458C264.324,184.621 262.842,192.795 265.927,185.926C266.064,185.62 268.932,179.233 265.73,181.748C265.54,181.898 265.665,181.96 264.375,184.458ZM196.25,169.031C195.693,169.445 193.106,171.368 188.84,173.536C189.119,173.991 189.647,174.854 195.485,174.08C208.774,172.32 208.863,168.152 221.549,172.37C229.194,174.912 231.376,178.116 232.062,173.417C232.497,170.44 235.215,171.962 236.706,166.556C237.368,164.152 246.71,139.682 248.166,123.45C248.336,121.558 250.424,118.622 245.46,117.968C240.219,117.278 224.716,115.237 179.538,122.596C171.014,123.985 192.449,126.741 191.933,142.503C191.763,147.712 189.173,147.174 189.026,154.49C188.999,155.854 186.372,163.1 189.446,161.431C190.293,160.971 197.506,149.37 198.172,148.299C204.313,138.423 203.169,135.495 202.742,134.405C202.207,133.036 198.82,129.453 206.412,127.175C211.115,125.764 240.292,136.988 234.667,149.585C232.368,154.733 224.967,152.418 214.401,162.401C209.841,166.71 209.34,165.907 201.447,169.338L198.561,170.85C196.88,171.358 197.183,170.497 196.25,169.031ZM196.25,169.031C195.693,169.445 193.106,171.368 188.84,173.536C189.119,173.991 189.647,174.854 195.485,174.08C208.774,172.32 208.863,168.152 221.549,172.37C229.194,174.912 231.376,178.116 232.062,173.417C232.497,170.44 235.215,171.962 236.706,166.556C237.368,164.152 246.71,139.682 248.166,123.45C248.336,121.558 250.424,118.622 245.46,117.968C240.219,117.278 224.716,115.237 179.538,122.596C171.014,123.985 192.449,126.741 191.933,142.503C191.763,147.712 189.173,147.174 189.026,154.49C188.999,155.854 186.372,163.1 189.446,161.431C190.293,160.971 197.506,149.37 198.172,148.299C204.313,138.423 203.169,135.495 202.742,134.405C202.207,133.036 198.82,129.453 206.412,127.175C211.115,125.764 240.292,136.988 234.667,149.585C232.368,154.733 224.967,152.418 214.401,162.401C209.841,166.71 209.34,165.907 201.447,169.338L198.561,170.85C196.88,171.358 197.183,170.497 196.25,169.031Z" />
        <path d="M286.665,357.825C285.217,358.583 271.697,366.271 273.657,362.566C273.737,362.416 305.401,344.605 286.665,357.825ZM225.843,295.762L224.283,293.605C224.624,293.439 225.067,293.941 225.408,293.775L230.347,289.991C231.631,289.687 232.229,288.285 232.134,289.568C232.089,290.169 231.838,290.034 231.794,290.624C228.836,293.257 228.837,293.142 225.843,295.762ZM322.527,362.497C322.72,361.517 322.328,360.481 322.521,359.501C322.588,359.161 324.442,359.139 324.548,359.501C325.339,362.223 324.659,363.232 324.48,363.497C323.616,364.778 323.369,361.248 322.527,362.497ZM294.279,321.78C294.358,323.743 293.576,323.245 292.461,323.275C291.969,323.288 286.896,323.421 286.35,322.602C285.996,322.072 285.926,319.396 294.279,321.78ZM297.5,268.803C301.581,270.515 297.767,271.1 297.599,271.038C296.205,270.532 296.822,270.067 297.5,268.803ZM310.013,352.118C307.777,352.097 308.536,348.86 308.739,348.674C308.956,348.476 311.259,347.597 310.013,352.118ZM296.523,281.486C296.148,281.385 295.874,282.141 295.5,282.04C295.148,281.945 295.348,281.142 294.991,281.073C294.556,280.989 294.654,281.591 289.472,281.432C286.56,281.343 283.761,281.885 285.995,279.989C288.188,278.127 295.719,280.288 296.53,280.521C300.008,279.861 299.915,279.546 303.445,279.804C303.975,279.843 303.909,279.826 304.487,279.739C306.019,279.509 305.82,280.041 306.886,281.155C303.269,282.463 303.227,281.983 299.32,282.101C299.242,286.563 299.006,286.585 298.643,286.617C295.525,286.898 296.94,285.171 297.687,282.128L296.523,281.486ZM312.544,356.449C311.901,356.521 309.062,356.839 304.468,356.8C302.869,356.786 301.486,354.665 304.502,354.623C305.23,354.613 309.898,354.549 313.601,354.824C320.696,354.698 320.852,354.329 321.5,355.019C321.778,355.315 321.626,355.871 321.904,356.167C321.186,356.381 317.158,357.584 312.544,356.449Z" />
        <path d="M46.724,299.727C47.996,298.377 47.938,298.479 50.228,296.228C58.989,287.617 59.783,279.554 63.528,286.482C70.429,299.25 67.295,302.454 68.164,304.706C69.399,307.906 94.705,288.14 82.372,300.389C77.062,305.664 77.931,306.269 76.017,309.171C74.025,312.191 75.4,312.572 74.666,314.579C73.464,317.865 71.719,317.044 66.549,331.521C62.19,343.727 46.558,346.238 40.633,340.363C28.972,328.8 32.021,324.127 31.661,321.489C29.984,309.211 37.444,308.215 46.724,299.727Z" />
        <path d="M373.5,288.966C376.768,289.355 378.21,288.24 378.325,291.507C378.349,292.174 378.306,292.842 378.336,293.509C378.497,297.075 384.291,295.636 424.5,295.86C430.965,295.896 440.866,310.743 444.49,312.518C447.331,313.908 469.396,313.008 471.56,312.92C473.749,312.831 474.908,307.755 480.445,308.812C489.734,310.586 483.372,327.765 473.228,316.784C471.861,315.305 455.281,316.391 445.476,315.976C441.483,315.807 429.91,301.216 426.228,298.923C425.01,298.165 405.689,297.498 406.7,299.463C407.106,300.252 430.81,323.948 432.923,326.06C437.664,330.8 439.538,327.044 443.127,329.974C450.092,335.661 439.47,343.851 435.406,338.585C432.724,335.108 434.307,332.341 434.124,331.537C433.547,329.015 405.765,302.281 403.212,299.824C399.094,295.862 369.203,300.734 368.967,297.024C368.6,291.277 367.817,289.264 373.5,288.966ZM481.274,312.706C480.932,312.513 477.416,310.522 476.426,313.474C474.927,317.948 483.694,319.028 481.274,312.706ZM440.684,336.963C445.89,331.564 438.068,330.447 436.825,333.628C435.385,337.314 440.277,336.99 440.684,336.963Z" style="fill:rgb(254,254,254);" />
        <path d="M336.28,249.219C340.172,248.293 340.164,248.662 344.152,248.887C345.083,248.939 345.471,253.037 345.916,253.267C348.546,254.629 404.412,253.543 409.498,253.444C413.201,253.372 412.745,252.047 440.504,224.504C444.992,220.051 470.232,225.056 473.337,221.381C481.385,211.853 487.797,222.914 483.745,227.695C478.668,233.685 473.079,225.532 471.521,225.375C469.493,225.171 446.354,225.323 445.492,225.393C441.038,225.76 419.503,250.769 414.186,255.13C411.089,257.67 348.521,254.95 345.645,256.646C342.004,258.794 341.799,257.675 336.448,257.58C335.904,253.419 336.212,253.493 336.28,249.219ZM479.552,221.069C479.144,221.153 474.674,222.079 476.66,225.403C478.826,229.03 485.878,223.964 479.552,221.069Z" />
        <path d="M347.454,215.434C354.885,215.226 355.281,214.574 356.004,215.801C356.737,217.046 354.037,221.987 359.499,221.942C380.467,221.767 381.427,223.482 386.456,218.456C388.977,215.937 404.478,200.445 417.73,186.716C426.046,178.101 427.524,180.638 439.5,180.629C458.913,180.614 459.74,180.616 461.5,180.619C468.891,180.635 471.431,181.479 473.744,178.697C481.432,169.451 490.635,185.298 480.576,187.771C474.802,189.19 473.94,183.289 470.52,183.219C466.921,183.146 428.668,182.371 425.525,183.551C422.094,184.84 387.11,224.193 382.534,224.796C379.703,225.169 348.103,225.111 347.198,223.723C347.061,223.513 347.123,223.479 347.454,215.434ZM478.464,179.086C471.797,181.811 479.55,187.279 481.574,183.554C483.538,179.937 478.893,179.158 478.464,179.086Z" style="fill:rgb(254,254,254);" />
        <path d="M347.246,238.213C348.683,237.996 349.027,237.194 350.863,239.172C351.509,239.869 351.689,239.952 401.503,239.875C410.89,239.861 409.976,237.142 419.635,227.639C421.543,225.762 442.495,205.149 442.948,203.652C443.543,201.681 441.062,194.682 449.473,194.88C456.084,195.036 456.34,206.016 449.474,206.167C443.186,206.305 443.578,207.642 437.12,214.097C415.741,235.469 410.208,242.656 406.505,242.67L368.5,242.671C350.933,242.666 350.393,242.858 349.216,245.352C348.777,246.283 348.576,245.977 347.547,246.308C346.888,244.444 347.007,244.499 347.113,242.552C347.207,240.816 346.925,240.11 347.246,238.213ZM449.41,197.869C441.793,198.647 448.095,205.162 450.528,202.53C452.538,200.356 451.552,199.909 449.41,197.869Z" style="fill:rgb(254,254,254);" />
        <path d="M358.461,278.438C365.118,276.925 366.132,278.077 367.488,280.507C368.439,282.21 444.706,281.555 445.28,281.159C445.458,281.037 448.748,274.753 454.57,277.35C462.583,280.924 454.183,293.724 446.822,286.169C444.4,283.684 443.932,284.132 413.5,284.129C368.368,284.123 367.804,284.065 367.305,285.429C365.469,290.446 363.842,288.786 358.843,287.084C357.232,286.535 358.357,279.122 358.461,278.438ZM454.092,280.749C453.762,280.487 450.254,277.701 448.903,281.609C447.443,285.835 456.232,288.122 454.092,280.749Z" />
        <path d="M336.369,260.328C343.776,259.915 344.18,259.333 344.631,260.436C345.064,261.495 343.76,264.815 346.529,265.011C351.953,265.393 351.927,264.957 414.5,264.953C422.188,264.952 426.559,254.63 435.42,247.395C437.147,245.985 439.134,247.555 437.393,249.408C419.981,267.939 419.654,267.95 417.475,268.028C406.866,268.404 347.182,267.274 343.594,268.674C341.764,269.389 341.728,268.964 336.514,268.479C336.068,264.396 336.226,264.478 336.369,260.328Z" />
        <path d="M358.387,312.362C367.128,311.476 367.431,312.697 367.072,313.297C366.686,313.942 363.928,315.188 364.887,316.205C365.84,317.215 398.561,314.953 401.264,317.737C413.201,330.03 415.833,332.575 412.482,332.14C408.264,331.593 402.82,319.179 395.501,319.125C369.721,318.935 369.763,319.643 358.4,318.7C358.173,315.511 358.166,315.57 358.387,312.362Z" />
        <path d="M322.615,368.359C322.658,372.824 319.179,375.25 323.606,375.321C325.006,375.343 324.693,374.813 324.633,373.482C324.522,371 324.586,371.057 324.538,368.622C329.549,368.498 329.448,368.362 334.454,368.575L334.38,369.623C333.957,373.37 333.425,373.428 334.744,376.967C331.155,378.236 327.461,376.857 322.571,377.598C320.764,378.252 320.823,378.248 319.389,379.584C317.662,377.119 317.016,377.753 309.317,369.675C309.882,369.313 309.935,368.408 310.5,368.046C311.316,367.523 311.428,368.995 322.615,368.359Z" />
        <path d="M322.571,377.598C322.594,379.07 322.515,379.09 322.596,379.188C323.205,379.924 323.385,379.615 334.53,379.423C334.043,384.281 332.172,384.924 335.542,388.275C321.712,390.073 342.867,390.422 343.528,390.433C344.735,390.453 344.643,390.606 345.75,391.18C345.551,392.614 343.402,392.837 345.561,399.817C339.913,399.571 339.765,395.751 333.699,392.181C333.104,391.83 325.575,384.708 320.891,381.09C320.891,381.09 319.509,379.704 319.389,379.584C320.823,378.248 320.764,378.252 322.571,377.598Z" style="fill:rgb(253,253,253);" />
        <path d="M321.412,333.66C321.834,333.84 322.257,334.02 322.679,334.2C322.741,338.423 322.776,338.349 323.009,342.5L322.669,343.708C315.563,343.535 315.626,343.513 308.507,343.515L309.5,342.118C309.98,341.185 310.358,341.433 310.356,340.455C310.353,339.48 310.425,339.541 310.419,338.511C310.4,335.429 309.572,335.737 309.5,335.566L308.587,334.328C317.444,334.709 317.447,334.77 321.412,333.66Z" />
        <path d="M333.673,158.337L334.542,158.442C336.623,159.961 336.568,160.062 336.789,160.082C338.615,160.249 338.539,159.628 340.296,159.928C346.057,160.913 337.67,162.117 337.379,162.159C335.181,162.474 336.111,163.629 335.787,163.697C333.959,164.077 334.24,162.652 332.462,162.794C326.135,163.297 325.098,163.095 323.152,165.247C321.544,162.069 320.398,164.588 307.509,165.47C300.385,166.003 300.342,165.98 298.272,167.184C295.84,165.853 295.589,166.464 293.56,164.675C294.034,164.609 297.455,164.134 299.484,163.907C299.856,163.892 300.228,163.877 300.6,163.862C303.214,163.59 331.702,160.631 333.251,160.144C333.251,160.144 333.639,158.481 333.673,158.337Z" style="fill:rgb(227,227,227);" />
        <path d="M311.627,248.655C318.401,248.881 318.488,247.85 322.764,249.209C322.756,253.431 323.045,256.238 322.629,257.672C322.128,257.796 321.626,257.919 321.124,258.042C315.671,257.766 315.751,257.746 310.307,257.727C308.206,254.928 310.466,249.641 311.627,248.655Z" />
        <path d="M310.342,147.248C311.334,147.27 315.759,147.37 322.743,147.228C322.822,155.146 322.818,155.083 322.835,155.878C322.373,156.063 321.911,156.248 321.449,156.433C315.086,156.379 315.133,156.794 308.846,155.964L309.97,154.5C310.608,150.877 309.741,150.904 310.342,147.248Z" />
        <path d="M310.569,135.834L313.484,135.908C316.523,136.024 319.562,136.14 322.601,136.256C322.634,136.936 322.961,143.534 322.781,144.766C322.343,145 321.905,145.234 321.468,145.468C315.903,144.382 315.743,146.469 310.262,144.786C310.337,142.796 310.24,137.704 310.174,136.5L310.569,135.834Z" />
        <path d="M310.738,259.764C313.587,259.951 313.516,260.02 318.507,260.056C320.635,260.071 320.588,259.716 322.707,260.193C322.686,264.509 322.678,264.427 322.639,268.665C321.187,269.066 321.209,268.874 310.392,268.716C310.329,268.232 309.413,268.172 309.35,267.688C309.3,267.3 310.258,267.433 310.204,261.5L310.112,260.044L310.738,259.764Z" />
        <path d="M310.334,193.173C317.504,192.882 317.479,192.313 322.742,193.122C322.939,197.45 322.912,197.394 322.618,201.711C316.474,201.839 316.554,201.839 310.366,201.75C310.316,197.46 310.33,197.552 310.334,193.173Z" />
        <path d="M310.374,271.228C316.577,271.14 316.553,270.294 322.612,271.346C323.058,273.151 322.661,279.668 322.661,279.691C321.647,279.937 311.258,279.891 310.402,279.718C310.398,275.419 310.318,275.516 310.374,271.228Z" />
        <path d="M334.542,158.442C340.966,157.586 344.508,158.521 345.344,158.742C344.611,162.234 344.808,162.166 344.608,165.68C342.471,165.832 342.583,165.949 340.507,165.973C331.566,166.079 331.646,166.601 322.708,166.871C322.856,166.33 323.004,165.788 323.152,165.247C325.098,163.095 326.135,163.297 332.462,162.794C334.24,162.652 333.959,164.077 335.787,163.697C336.111,163.629 335.181,162.474 337.379,162.159C337.67,162.117 346.057,160.913 340.296,159.928C338.539,159.628 338.615,160.249 336.789,160.082C336.568,160.062 336.623,159.961 334.542,158.442Z" style="fill:rgb(246,246,246);" />
        <path d="M313.267,237.381L314.18,237.128C322.101,237.795 322.233,237.859 322.862,238.164C322.795,241.654 322.831,241.595 323.152,245.072C322.924,245.535 322.697,245.999 322.47,246.462C317.007,246.684 317.106,246.584 311.734,246.433C312.155,241.837 311.924,241.862 313.267,237.381Z" />
        <path d="M310.366,282.224C320.345,281.867 320.323,282.2 322.688,282.305C323.404,285.445 322.752,285.437 322.829,288.679L322.544,289.536C315.088,289.41 315.159,289.746 313.235,290.813C311.685,289.173 311.587,289.468 309.463,288.586L309.819,287.5C310.329,284.875 310.408,284.962 310.366,282.224Z" />
        <path d="M319.544,181.81C320.616,181.949 321.688,182.089 322.76,182.229C323.338,186.004 322.709,185.942 322.952,189.811L322.558,190.609C316.433,190.71 316.525,190.68 310.442,190.604C309.916,188.86 309.899,188.88 310.204,187.085C315.17,184.583 313.944,181.808 319.544,181.81Z" />
        <path d="M324.567,345.791C331.158,345.586 331.228,345.042 333.914,346.125L333.967,347.301C333.869,350.301 333.996,350.242 334.211,353.217C334.053,353.736 333.896,354.255 333.739,354.773C333.215,354.899 332.691,355.025 332.167,355.151C327.855,354.901 327.961,354.822 323.588,354.865C322.936,353.211 322.823,353.3 322.652,351.472C323.416,351.897 324.665,353.352 324.796,350.531C324.814,350.152 324.889,348.513 324.567,345.791Z" />
        <path d="M314.608,226.575C318.561,226.239 318.507,226.45 322.526,226.457C322.803,226.86 323.079,227.262 323.356,227.664C322.922,231.204 322.828,231.142 322.87,234.754L322.482,235.479C317.89,235.564 317.065,233.552 314.18,237.128L313.267,237.381C313.384,231.909 313.384,231.991 314.608,226.575Z" />
        <path d="M307.509,165.47C308.015,166.409 307.897,166.351 308.532,168.568C306.783,168.869 295.917,170.738 286.595,171.907C285.593,171.089 285.944,169.853 282.473,170.385C280.54,170.681 280.604,170.807 278.711,170.419C279.538,169.808 279.255,169.501 280.33,169.223C281.983,168.796 281.907,168.855 283.504,168.482C286.546,168.164 286.433,167.793 289.5,167.497C289.996,167.554 289.821,168.695 290.316,168.752C294.425,169.223 294.327,168.612 298.272,167.184C300.342,165.98 300.385,166.003 307.509,165.47Z" style="fill:rgb(232,232,232);" />
        <path d="M410.5,135.966C415.92,136.301 415.271,138.177 414.843,143.564C414.65,145.995 405.451,145.956 405.316,143.53C405.284,142.939 404.94,136.736 406.364,136.216C406.676,136.102 406.671,136.198 410.5,135.966Z" />
        <path d="M324.403,312.159C330.984,311.442 333.386,312.126 333.763,312.154C333.861,320.187 333.903,320.174 333.812,320.841L333.246,321.278C329.228,321.094 329.277,320.867 325.75,321.186C325.295,321.06 324.841,320.934 324.387,320.808C324.449,320.518 323.986,320.275 324.049,319.985C324.54,317.691 324.909,317.843 324.912,315.574C324.914,314.763 324.456,312.43 324.403,312.159Z" />
        <path d="M321.436,311.245L323.739,312.01C321.987,316.291 322.506,316.367 322.837,320.944L322.358,321.388L321.366,321.358C313.033,320.165 313.011,321.886 310.545,321.493C310.068,321.417 309.97,320.571 309.492,320.495C315.3,314.28 320.353,311.781 321.436,311.245Z" />
        <path d="M421.5,134.034C418.701,133.768 416.668,134.889 416.731,129.5C416.798,123.824 418.787,124.206 424.447,124.842C426.723,125.098 426.184,131.823 426.134,132.444C425.955,134.672 424.902,133.659 421.5,134.034Z" />
        <path d="M287.521,102.614C290.318,102.17 290.299,102.168 290.542,102.134C291.114,102.055 291.024,102.16 291.577,102.084C296.878,104.015 296.765,107.177 297.638,109.475C296.743,112.898 293.258,111.603 287.498,111.51C287.306,110.609 287.148,104.225 287.521,102.614Z" />
        <path d="M384.5,134.034C380.706,133.654 380.65,133.846 380.408,133.624C379.605,132.886 379.665,127.089 379.671,126.517C379.694,124.266 386.81,124.838 387.443,124.889C389.229,125.033 389.133,130.95 389.124,131.495C389.072,134.707 387.659,133.672 384.5,134.034Z" />
        <path d="M391.37,147.255C392.078,147.206 399.95,146.654 400.142,148.553C400.952,156.571 398.723,158.777 391.235,155.841C391.171,151.423 390.915,151.494 391.37,147.255Z" />
        <path d="M373.5,310.034C369.732,309.626 369.657,309.835 369.437,309.594C369.044,309.164 369.205,303.002 369.22,302.429C369.295,299.566 377.806,300.811 378.182,301.642C380.867,307.565 379.99,309.573 373.5,310.034Z" />
        <path d="M395.5,123.034C394.477,122.927 393.439,123.044 392.416,122.937C390.017,122.687 389.92,114.311 392.552,113.851C399.595,112.62 401.151,114.349 400.113,121.447C399.792,123.635 398.842,122.659 395.5,123.034Z" />
        <path d="M369.374,136.251C369.381,136.251 372.657,135.735 376.457,135.979C376.64,135.991 377.979,136.076 378.116,137.55C378.843,145.362 376.727,147.217 369.294,144.795C369.09,140.436 368.945,140.509 369.374,136.251Z" />
        <path d="M336.097,346.06C338.048,345.659 342.684,343.823 345.042,346.799C344.883,350.778 345.037,350.698 344.653,354.666C344.162,354.79 343.671,354.914 343.179,355.039C336.901,354.802 336.915,354.743 336.37,354.734L335.709,353.306C336.075,350.385 336.257,350.439 336.025,347.289L336.097,346.06Z" />
        <path d="M369.325,402.29C370.016,402.105 375.484,400.641 378.254,402.782C378.076,404.409 377.474,407.39 378.34,410.279C377.939,410.361 377.75,410.921 377.349,411.003C371.859,412.127 369.821,411.076 369.245,410.779C369.239,406.183 369.152,406.258 369.325,402.29Z" />
        <path d="M343.208,356.951L344.682,357.307C345.029,361.649 345.348,361.559 344.83,365.792L344.28,366.271C339.858,366.285 339.947,366.231 335.599,366.1C336.464,361.405 336.242,360.028 336.158,359.505C335.964,358.303 336.252,358.358 336.348,357.18C338.635,357.104 340.921,357.028 343.208,356.951Z" />
        <path d="M369.383,158.287C372.02,158.149 372,157.329 377.592,158.348C377.807,165.064 377.799,165.022 377.824,165.602C377.925,167.92 370.902,168.778 368.842,166.182C368.995,162.164 369.217,162.244 369.383,158.287Z" />
        <path d="M335.519,368.558C340.05,368.455 339.964,368.422 344.561,368.422C344.661,369.094 345.419,374.167 344.929,376.91C344.888,377.141 344.395,377.086 344.354,377.318C339.881,377.448 339.984,377.39 335.589,377.047C335.045,375.637 335.885,375.782 336.182,374.513C336.798,371.884 336.349,371.943 335.437,369.42L335.519,368.558Z" />
        <path d="M324.492,147.478C329.08,147.327 329.01,147.313 333.639,147.319C333.924,151.522 333.763,151.457 333.716,155.741C328.917,156.279 328.891,157.276 324.284,155.851C325.593,151.335 324.995,151.337 324.478,148.474L324.492,147.478Z" />
        <path d="M324.375,238.321C325.04,237.96 328.329,236.178 333.834,238.205C334.376,242.371 334.184,242.338 333.515,246.52C328.011,246.619 328.043,247.032 324.683,246.214L324.802,245.262C324.91,242.49 325.523,242.483 324.375,238.321Z" />
        <path d="M347.301,312.203C351.515,311.41 351.533,311.145 355.649,312.332C355.761,315.394 355.911,315.326 356.029,318.342C356.104,322.601 352.726,321.818 347.338,320.719C347.228,316.395 347.213,316.493 347.301,312.203Z" />
        <path d="M357.552,125.574C359.919,124.641 359.906,124.742 362.498,124.765C367.548,124.809 367.202,126.448 367.119,131.494C367.055,135.373 360.144,133.687 358.433,133.601C358.083,127.49 357.725,126.196 357.552,125.574Z" />
        <path d="M388.607,147.317C388.812,151.541 388.811,151.46 388.677,155.728C387.613,155.874 386.58,156.204 381.388,155.905C378.668,155.748 379.588,148.422 379.946,147.783C380.46,146.867 387.914,147.279 388.607,147.317Z" />
        <path d="M380.265,380.329C383.415,378.17 389.348,379.58 389.342,380.598C389.3,388.06 389.047,388.255 388.434,388.394C383.415,389.532 380.845,388.011 380.282,387.678C380.276,385.228 380.27,382.779 380.265,380.329Z" />
        <path d="M355.653,125.294C355.719,129.49 355.681,129.392 355.532,133.545C350.032,134.325 349.887,133.739 347.379,133.676C346.966,131.354 346.936,131.434 346.887,130.569C346.866,130.404 346.617,128.507 346.617,128.507C346.592,127.74 346.398,121.73 355.653,125.294Z" />
        <path d="M325.488,226.481C330.73,226.43 330.66,226.415 333.5,226.5C334.149,230.338 333.329,230.373 334.156,234.154L333.451,235.442C329.471,235.519 329.54,235.547 325.492,235.51L324.716,234.282C324.947,230.948 324.906,231.044 324.657,227.662L325.488,226.481Z" />
        <path d="M335.495,379.464C342.149,379.474 342.258,378.798 344.963,380.147C344.865,384.065 344.891,384 344.951,387.892C342.117,388.993 342.073,388.429 335.542,388.275C337.103,383.959 336.479,383.881 335.495,379.464Z" />
        <path d="M380.519,399.477C380.247,391.833 380.179,391.828 380.322,391.351C380.593,390.451 387.697,390.749 388.339,390.776C389.575,390.827 389.268,391.253 389.221,392.544C388.994,398.792 389.509,398.751 389.278,399.233C388.732,400.372 388.346,399.772 380.519,399.477Z" />
        <path d="M409.542,399.854C403.287,399.765 403.127,400.203 402.576,399.402C402.525,399.328 401.841,390.931 403.628,390.768C406.97,390.463 411.481,390.249 411.431,392.511C411.333,396.963 413.944,398.756 409.542,399.854Z" />
        <path d="M324.382,260.264C325.192,260.038 330.91,259.533 333.644,260.325C333.757,264.228 333.973,264.147 334.141,268.1L333.673,268.675L332.224,269.039C328.726,268.934 328.742,269.556 325.297,268.746C325.052,266.57 324.454,260.943 324.382,260.264Z" />
        <path d="M358.376,204.276C364.925,203.995 366.146,202.271 367,205.349C369.074,212.827 366.071,213.716 358.36,212.699C358.248,209.605 357.788,209.65 358.376,204.276Z" />
        <path d="M347.033,391.037C353.905,388.718 355.781,391.19 356.227,391.778C355.872,397.529 355.668,398.977 355.58,399.599C352.86,399.622 350.141,399.645 347.421,399.668C346.913,395.31 347.126,395.374 347.033,391.037Z" />
        <path d="M380.399,402.39C387.497,402.08 389.265,400.36 389.218,403.551C389.124,409.941 389.653,410.263 388.631,410.747C387.458,411.303 387.404,411.022 380.436,410.599C380.273,406.492 380.352,406.596 380.399,402.39Z" />
        <path d="M325.433,215.357C329.503,215.3 329.418,215.348 333.563,215.397C333.678,219.311 333.977,219.222 334.186,223.109C330.897,225.395 330.599,224.391 326.539,224.387C325.176,224.386 325.314,224.018 324.629,223.359C324.918,220.021 324.954,220.082 324.724,216.717L325.433,215.357Z" />
        <path d="M324.445,136.315C329.494,136.225 329.429,136.054 333.598,136.325C333.709,140.559 333.761,140.456 333.721,144.724L333.15,145.178C326.317,145.06 326.36,145.071 325.77,145.05C325.408,145.038 325.558,144.865 325.288,144.855C324.701,140.569 325.344,140.56 324.445,136.315Z" />
        <path d="M368.776,380.86C369.927,380.013 369.806,379.255 376.495,379.52C378.105,379.583 377.857,380.278 378.193,380.769C377.975,384.071 377.9,383.983 378.202,387.253C376.889,389.181 374.853,388.752 369.63,388.322L368.837,387.112C369.069,383.916 369.035,384.006 368.776,380.86Z" />
        <path d="M380.569,368.591C384.075,367.995 384.039,368.239 387.531,368.303C391.046,368.366 389.151,370.231 389.234,375.459C389.238,375.694 389.891,377.015 388.329,377.16C384.206,377.542 384.124,378.222 380.384,376.607C380.322,372.578 380.249,372.667 380.569,368.591Z" />
        <path d="M336.595,226.622C336.873,226.61 344.734,225.697 344.838,227.326C345.085,231.161 345.079,235.39 343.511,235.525C341.555,235.694 341.587,235.59 336.55,235.432L335.818,234.191C336.23,227.257 336.292,227.15 336.595,226.622Z" />
        <path d="M347.084,380.101C350.63,378.598 350.712,379.402 354.519,379.446C356.685,379.471 355.599,385.349 356.162,388.027C352.989,388.967 353.023,388.482 347.61,388.353C347.596,388.156 347.093,388.205 347.084,380.101Z" />
        <path d="M336.186,301.204C337.083,300.848 344.955,298.892 344.819,302.444C344.797,303.015 344.799,302.973 344.556,309.583C340.488,309.641 340.551,309.658 336.439,309.616C335.414,307.044 336.098,301.871 336.186,301.204Z" />
        <path d="M336.26,312.158C340.526,311.345 340.527,311.249 344.737,312.208C344.796,316.535 344.739,316.455 344.642,320.702C340.382,321.078 340.484,321.077 336.29,320.793C336.104,316.475 336.213,316.567 336.26,312.158Z" />
        <path d="M336.425,215.367C340.524,215.295 340.459,215.333 344.547,215.431C344.797,222.048 344.797,222.006 344.817,222.578C344.908,225.145 337.345,225.273 335.852,223.179C336.051,219.255 335.893,219.325 336.425,215.367Z" />
        <path d="M368.674,391.731C369.08,391.503 369.279,390.996 369.684,390.768C369.699,390.759 378.008,389.46 377.921,392.415C377.896,393.274 378.261,397.639 377.559,399.586C373.439,399.648 373.535,399.636 369.462,399.556C369.443,398.987 369.224,392.441 369.224,392.441C369.202,392.143 368.697,392.029 368.674,391.731Z" />
        <path d="M358.229,391.263C364.392,388.473 366.782,391.217 367.257,391.763C366.793,398.87 366.755,398.982 366.549,399.574C362.392,399.666 362.497,399.65 358.431,399.591C358.29,395.367 358.213,395.452 358.229,391.263Z" />
        <path d="M417.5,356.966C420.738,357.335 421.722,356.295 422.104,358.566C423.05,364.188 423.139,366.097 417.495,366.06C411.415,366.02 413.202,362.786 413.227,360.495C413.285,355.386 416.18,357.191 417.5,356.966Z" />
        <path d="M367.004,297.13C366.482,298.162 366.655,298.471 365.497,298.491C364.913,298.5 358.316,298.611 358.238,297.666C357.554,289.427 358.786,289.387 359.457,289.365C360.051,289.345 366.752,289.125 366.818,290.347C366.847,290.889 366.832,290.85 367.004,297.13Z" />
        <path d="M364.494,356.939C365.221,357.035 365.947,357.131 366.673,357.228L367.063,358.74C366.842,365.223 366.769,365.203 366.759,365.766C366.057,365.855 358.124,366.861 357.937,365.02C357.876,364.415 358.216,364.438 358.449,357.427C364.027,357.052 364.01,356.965 364.494,356.939Z" />
        <path d="M395.5,411.034C395.191,411.01 391.811,410.741 391.695,410.279C391.59,409.863 391.52,403.453 391.635,402.618C391.738,401.874 398.018,402.071 398.574,402.088C402.165,402.201 400.546,403.935 400.515,407.5C400.471,412.45 397.172,410.895 395.5,411.034Z" />
        <path d="M347.425,357.392C353.4,356.665 353.338,357.299 355.589,357.389C355.609,357.934 355.814,357.831 355.834,358.376C355.95,361.529 355.748,361.44 355.854,364.592C355.934,366.971 350.022,366.75 347.233,365.766C347.199,361.496 347.268,361.584 347.425,357.392Z" />
        <path d="M367.18,380.8C367.006,384.018 367.005,383.937 367.156,387.193C366.91,387.59 366.664,387.987 366.419,388.384C362.48,388.519 362.558,388.635 358.632,388.331C358.418,387.395 358.161,387.512 358.221,386.539C358.537,381.421 356.826,379.496 360.501,379.514C364.228,379.533 365.017,377.662 367.18,380.8Z" />
        <path d="M391.82,388.101C391.123,384.316 391.405,384.385 391.515,380.509C391.533,379.868 391.561,378.871 399.472,379.555C400.1,379.61 400.504,379.821 400.33,387.386C400.295,388.898 392.5,388.165 391.82,388.101Z" />
        <path d="M358.431,147.389C365.82,147.21 365.922,146.949 366.54,147.456C367.152,147.957 367.123,153.008 367.121,153.494C367.097,157.632 360.824,155.987 358.306,155.742C358.201,151.501 358.239,151.563 358.431,147.389Z" />
        <path d="M347.504,289.505C348.171,289.46 355.745,288.95 355.823,290.372C355.926,292.255 356.413,298.374 354.477,298.439C353.894,298.458 347.469,298.674 347.226,297.677C347.124,297.259 347.173,297.267 347.504,289.505Z" />
        <path d="M413.697,379.852C414.145,379.736 420.167,378.057 422.084,380.701C422.073,382.634 422.097,382.537 422.063,384.502C422.027,386.629 422.993,389.211 415.481,388.676C413.63,388.544 413.527,387.679 413.505,387.496C413.29,385.69 413.421,385.711 413.697,379.852Z" />
        <path d="M347.35,193.271C350.461,193.064 350.342,192.807 353.49,192.863C357.222,192.93 356.107,198.747 356.091,199.497C356.009,203.332 348.189,201.66 347.418,201.637C347.269,197.405 347.242,197.466 347.35,193.271Z" />
        <path d="M325.38,204.229C329.549,204.169 329.478,204.2 333.647,204.261C333.761,208.545 333.971,208.49 333.642,212.729C329.389,213.029 329.46,213.166 325.27,212.856L324.815,211.261C324.993,208.453 324.949,208.533 324.776,205.763L325.38,204.229Z" />
        <path d="M325.246,193.081C330.1,192.428 330.866,190.215 334.146,193.886C333.954,197.771 333.702,197.69 333.563,201.594C329.475,201.717 329.545,201.753 325.395,201.731C324.83,197.449 324.983,197.499 325.246,193.081Z" />
        <path d="M325.191,249.142C327.763,248.533 327.731,248.869 333.741,249.211C333.804,253.446 334.102,253.365 333.579,257.607C329.438,257.717 329.548,257.715 325.375,257.695C324.793,253.405 325.007,253.495 325.191,249.142Z" />
        <path d="M347.46,309.562C347.215,302.966 347.227,303.008 347.196,302.439C347.16,301.779 347.012,299.061 355.284,300.755C356.227,300.948 355.863,308 355.831,308.631C355.7,311.164 354.335,309.705 347.46,309.562Z" />
        <path d="M398.531,399.746C392.414,399.418 391.581,400.196 391.52,398.493C391.48,397.391 390.955,390.86 392.637,390.815C393.256,390.798 399.812,390.623 400.334,391.635C400.583,392.116 400.213,392.119 400.303,398.41C400.328,400.217 399.285,399.553 398.531,399.746Z" />
        <path d="M325.286,182.192C331.448,181.739 331.507,181.165 333.808,182.181C333.82,186.438 333.705,186.367 333.546,190.558C329.442,190.63 329.534,190.654 325.438,190.628L324.702,189.319C324.748,188.749 325.094,184.436 325.286,182.192Z" />
        <path d="M336.221,238.21C340.523,237.726 340.479,237.727 344.783,238.21C344.864,238.76 344.727,238.673 345.082,245.159C344.739,245.494 344.803,246.12 344.461,246.454C344.062,246.843 343.971,246.657 336.479,246.529C335.729,242.372 335.439,242.39 336.221,238.21Z" />
        <path d="M324.522,271.537C325.114,271.271 325.81,270.959 332.621,271.158L333.659,271.308C333.839,271.969 335.934,279.68 332.598,279.803C328.51,279.953 328.586,280.212 324.512,279.479C325.237,275.498 324.986,275.557 324.522,271.537Z" />
        <path d="M455.498,368.06C459.385,368.159 459.495,367.681 460.425,368.582C461.411,369.537 461.006,375.036 460.965,375.597C460.797,377.87 452.267,377.775 452.142,375.56C451.856,370.492 450.443,368.398 455.498,368.06Z" style="fill:rgb(253,253,253);" />
        <path d="M366.54,368.443C366.75,369.024 366.837,369.264 367.121,376.134C365.165,378.554 364.613,377.276 361.504,377.309C356.059,377.366 357.957,374.769 358.245,369.377C358.375,366.958 359.635,368.383 366.54,368.443Z" />
        <path d="M347.471,368.459C347.905,368.453 350.279,368.295 354.537,368.361C356.634,368.394 355.628,369.506 355.872,375.601C356.018,379.257 347.872,377.059 347.195,376.876C347.067,372.58 346.866,372.672 347.471,368.459Z" />
        <path d="M369.575,368.601C373.94,368.027 373.991,367.502 378.152,368.98C377.685,371.754 377.955,371.693 378.137,376.179C376.417,378.084 371.077,377.373 369.321,376.676C369.27,372.597 368.856,372.646 369.575,368.601Z" />
        <path d="M366.842,308.637L366.518,309.523C365.699,309.548 364.149,309.833 359.443,309.732C356.453,309.668 358.162,302.004 358.309,301.343C358.555,300.24 365.595,300.759 366.229,300.806C367.297,300.884 366.737,301.486 366.842,308.637Z" />
        <path d="M336.411,147.335C340.554,147.286 340.448,147.324 344.554,147.417C344.684,151.605 344.735,151.496 344.678,155.718C341.317,156.573 341.31,156.075 336.259,155.814C336.216,155.137 335.834,149.059 336.411,147.335Z" />
        <path d="M324.553,366.236C329.443,366.323 329.385,366.329 334.277,366.129L335.599,366.1C339.947,366.231 339.858,366.285 344.28,366.271C344.374,366.988 344.467,367.705 344.561,368.422C339.964,368.422 340.05,368.455 335.519,368.558L334.454,368.575C329.448,368.362 329.549,368.498 324.538,368.622C323.897,368.534 323.256,368.447 322.615,368.359C311.428,368.995 311.316,367.523 310.5,368.046C309.935,368.408 309.882,369.313 309.317,369.675C308.205,368.696 308.285,368.757 307.305,367.721C313.984,364.709 315.846,367.531 324.553,366.236Z" style="fill:rgb(134,134,134);" />
        <path d="M347.424,147.368C351.535,147.298 351.471,147.331 355.542,147.44C355.674,151.561 355.705,151.496 355.631,155.662C350.413,156.315 350.408,156.673 346.579,155.388C347.685,151.462 346.794,151.402 347.424,147.368Z" />
        <path d="M358.342,402.344C364.416,401.988 364.357,401.744 366.747,402.179C366.898,408.207 367.419,408.227 366.397,411.031C361.576,410.879 361.289,411.388 357.692,408.357C358.461,405.386 358.216,405.431 358.342,402.344Z" />
        <path d="M396.513,368.234C398.624,368.432 400.173,367.361 400.165,370.57C400.151,376.097 401.219,377.085 399.317,377.137C398.692,377.154 391.628,377.345 391.533,376.468C391.493,376.093 391.489,368.958 391.684,368.719C392.344,367.908 392.543,368.362 396.513,368.234Z" />
        <path d="M336.383,136.272C340.04,136.213 339.996,135.932 344.576,136.371C344.692,140.547 344.72,140.486 344.62,144.669C342.409,144.783 341.98,145.37 336.325,144.77C336.254,144.094 335.69,138.702 336.383,136.272Z" />
        <path d="M436.502,368.084C439.645,368.434 440.95,367.4 441.141,370.522C441.422,375.135 441.535,377.18 438.497,377.157C435.275,377.133 434.618,379.036 432.652,376.406C432.363,376.018 432.345,370.491 432.606,369.531C433.231,367.233 434.09,368.331 436.502,368.084Z" />
        <path d="M336.379,204.273C339.543,204.203 339.488,203.83 344.607,204.349C344.79,208.552 344.9,208.496 344.611,212.659C342.566,212.776 342.081,213.378 336.336,212.783C336.017,208.531 336.232,208.588 336.379,204.273Z" />
        <path d="M336.369,193.313C339.436,192.864 342.09,192.651 344.666,193.315C344.758,197.536 344.717,197.467 344.583,201.63C342.198,201.698 342.304,202.123 336.419,201.632C336.292,197.469 336.245,197.536 336.369,193.313Z" />
        <path d="M411.189,380.727C411.199,386.83 411.201,386.791 411.2,387.318C411.197,388.655 404.186,388.365 403.57,388.34C402.937,388.314 401.518,388.255 402.484,380.487C402.597,379.575 409.338,378.382 411.189,380.727Z" />
        <path d="M347.408,204.355C349.768,204.282 349.72,203.739 355.57,204.397C355.752,208.518 355.874,208.412 355.571,212.589C354.508,212.662 352.801,213.516 347.379,212.664C347.298,210.305 346.732,210.361 347.408,204.355Z" />
        <path d="M347.404,136.339C350.356,136.262 350.311,135.835 355.565,136.4C356.104,141.83 355.676,141.744 355.592,144.616C349.986,145.381 349.972,144.8 347.352,144.726C347.21,140.5 347.239,140.568 347.404,136.339Z" />
        <path d="M408.494,368.965C412.292,369.503 411.695,370.698 411.784,374.5C411.865,377.964 407.673,377.44 403.646,377.152C402.495,377.07 402.483,371.961 402.482,371.5C402.473,367.371 404.42,368.867 408.494,368.965Z" />
        <path d="M358.418,136.361C362.533,136.267 362.436,136.282 366.566,136.405C366.652,140.511 366.665,140.413 366.579,144.594C360.973,145.434 360.989,144.769 358.375,144.67C358.251,141.705 357.656,141.724 358.418,136.361Z" />
        <path d="M380.418,158.361C381.152,158.354 382.914,158.168 387.544,158.293C389.805,158.354 389.189,163.933 389.133,164.438C389.079,164.921 388.954,166.058 383.562,166.861C382.845,166.968 377.464,167.769 380.418,158.361Z" />
        <path d="M355.902,229.519C355.287,234.9 353.805,236.13 348.512,235.464C346.404,235.199 346.433,226.738 348.513,226.536C348.965,226.492 353.564,226.41 354.501,226.497C356.028,226.64 355.463,227.294 355.902,229.519Z" />
        <path d="M449.499,123.918C450.793,124.091 452.122,123.794 453.416,123.967C455.347,124.226 456.094,132.992 452.485,133.133C451.998,133.152 446.697,133.359 446.621,131.489C446.42,126.606 444.607,124.635 449.499,123.918Z" style="fill:rgb(134,134,134);" />
        <path d="M448.501,410.941C444.344,410.895 443.492,410.607 443.496,406.5C443.502,401.195 445.173,401.145 450.448,401.931C452.271,402.202 451.784,408.94 451.74,409.558C451.584,411.713 450.627,410.822 448.501,410.941Z" style="fill:rgb(249,249,249);" />
        <path d="M420.51,155.852C420.953,155.869 425.74,156.062 425.811,157.454C425.84,158.027 426.145,164.04 424.501,164.502C417.999,166.328 416.933,164.216 417.251,157.466C417.329,155.808 418.043,156.424 420.51,155.852Z" style="fill:rgb(250,250,250);" />
        <path d="M358.457,158.444C362.576,158.348 362.482,158.356 366.548,158.436C366.732,162.506 366.882,162.412 366.489,166.48C362.326,167.096 362.252,167.389 358.337,165.695C358.275,163.588 358.213,161.48 358.151,159.373L358.457,158.444Z" />
        <path d="M316.63,214.585L317.698,214.792C320.156,215.224 320.155,214.765 322.662,215.257L323.201,216.782C323.066,219.115 322.931,221.448 322.796,223.78C322.638,223.842 322.696,224.275 315.46,224.52C314.333,218.664 315.714,216.884 316.63,214.585Z" />
        <path d="M347.44,158.414C354.03,158.282 353.988,158.258 354.558,158.272C356.137,158.309 355.961,161.628 355.586,165.621C353.718,166.025 352.804,166.619 347.364,165.733C347.208,162.365 346.84,162.405 347.44,158.414Z" />
        <path d="M324.579,282.623C339.088,278.695 332.988,287.883 332.47,288.474C332.244,288.73 330.531,290.205 330.36,290.352C327.954,289.619 328.037,289.473 325.485,289.515L324.747,289.109L324.66,288.338C324.949,285.473 324.94,285.543 324.579,282.623Z" />
        <path d="M355.543,278.435C355.832,286.137 355.919,286.157 355.736,286.669C355.371,287.692 354.979,287.145 348.629,287.181C345.968,287.196 347.219,285.861 348.224,283.417C351.385,275.729 353.437,278.114 355.543,278.435Z" />
        <path d="M369.558,357.791C370.185,357.887 375.933,358.489 378.209,361.682C378.167,362.83 378.124,363.977 378.081,365.124C377.624,365.657 375.852,367.729 369.323,365.7C369.233,361.918 369.231,362.014 369.287,358.17L369.558,357.791Z" />
        <path d="M336.374,182.189C340.525,182.801 345.067,184.995 345.124,188.504C345.181,192.02 337.985,190.701 336.448,190.582C336.26,186.325 336.249,186.408 336.374,182.189Z" />
        <path d="M325.541,335.169C330.485,337.453 330.293,337.654 334.28,340.637C334.208,341.449 334.136,342.26 334.063,343.072C329.541,344.692 329.415,342.821 322.669,343.708L323.009,342.5C323.267,341.824 324.615,342.062 324.873,341.386C325.774,339.02 324.392,338.897 325.057,336.5C325.184,336.045 325.415,335.624 325.541,335.169Z" />
        <path d="M333.491,300.546C333.597,301.022 334.204,301.281 334.31,301.757C334.423,302.262 333.667,309.024 333.597,309.655C326.658,309.694 326.039,310.442 324.296,308.414C330.843,300.962 331.373,301.555 333.491,300.546Z" />
        <path d="M344.56,130.393C344.559,131.456 344.557,132.52 344.555,133.584C337.645,133.854 337.65,134.056 336.372,133.657C333.458,132.748 333.505,133.9 330.506,134.008C327.254,134.125 326.717,135.243 324.683,132.673C330.987,130.043 333.387,132.472 336.693,130.913C339.281,129.692 343.935,130.31 344.56,130.393Z" style="fill:rgb(244,244,244);" />
        <path d="M421.907,398.682C419.252,400.917 418.964,400 415.516,400.009C414.993,400.011 412.35,400.018 413.678,393.733C413.865,392.846 419.064,393.139 419.534,393.165C423.187,393.37 421.808,395.006 421.907,398.682Z" />
        <path d="M344.496,289.518C345.51,292.421 344.62,292.453 344.837,296.546C344.995,299.54 338.674,298.495 337.502,298.493C332.987,298.487 340.54,290.612 344.496,289.518Z" />
        <path d="M308.594,187.162C308.712,187.653 308.178,188.156 308.296,188.647C308.296,188.647 309.393,190.395 309.488,190.547C308.87,190.598 308.252,190.65 307.634,190.701C299.067,190.781 299.145,190.361 298.438,190.563C296.508,191.115 296.466,192.634 296.38,192.724C292.559,192.57 292.274,193.095 289.515,190.533C289.677,190.479 291.54,189.856 291.54,189.856C305.398,187.243 307.213,187.197 308.594,187.162Z" style="fill:rgb(228,228,228);" />
        <path d="M307.509,165.47C320.398,164.588 321.544,162.069 323.152,165.247C323.004,165.788 322.856,166.33 322.708,166.871C322.28,166.989 321.851,167.107 321.423,167.225C314.852,168.611 309.569,168.575 308.532,168.568C307.897,166.351 308.015,166.409 307.509,165.47Z" style="fill:rgb(246,246,246);" />
        <path d="M308.846,155.964C315.133,156.794 315.086,156.379 321.449,156.433C321.859,157.046 322.27,157.658 322.681,158.271C315.469,158.582 287.265,158.728 297.517,156.561C302.597,155.487 302.633,157.552 307.769,156.734C308.204,156.665 308.41,156.034 308.846,155.964Z" style="fill:rgb(197,197,197);" />
        <path d="M325.485,289.515C328.037,289.473 327.954,289.619 330.36,290.352C329.839,291.227 327.674,294.868 318.49,294.939C316.007,294.959 316.333,294.229 314.502,292.498C315.029,292.22 314.973,291.293 315.5,291.014C315.935,290.784 315.879,291.41 321.643,291.29C323.602,291.25 323.57,292.111 325.398,291.404C326.676,290.909 325.516,290.687 325.428,290.501C325.287,290.203 325.626,289.812 325.485,289.515Z" style="fill:rgb(229,229,229);" />
        <path d="M319.502,331.499C320.614,332.472 320.61,332.352 321.412,333.66C317.447,334.77 317.444,334.709 308.587,334.328C307.656,334.393 297.75,335.078 296.924,334.068C295.449,332.264 299.284,332.709 303.51,332.546C317.346,332.012 317.442,333.484 318.5,332.919C319.011,332.645 318.992,331.772 319.502,331.499Z" style="fill:rgb(187,187,187);" />
        <path d="M347.544,347.806C355.56,349.701 357.761,354.688 354.591,354.801C349.753,354.975 348.328,354.626 347.433,354.601C347.027,351.166 346.802,351.212 347.544,347.806Z" />
        <path d="M336.381,271.308C342.614,270.817 342.513,271.99 342.359,272.452C342.201,272.923 340.984,276.567 340.021,278.209C338.927,280.073 338.631,279.715 336.402,279.644L336.226,278.595C336.003,274.844 335.996,274.941 336.381,271.308Z" />
        <path d="M325.335,323.261C327.65,323.248 332.418,322.973 333.737,323.296L334.11,323.833C333.873,324.569 334.953,326.717 323.543,328.623L323.934,327.5C324.875,325.424 324.818,325.495 325.335,323.261Z" />
        <path d="M286.665,357.825C285.217,358.583 271.697,366.271 273.657,362.566C273.737,362.416 305.401,344.605 286.665,357.825Z" style="fill:rgb(172,172,172);" />
        <path d="M300.74,234.118C302.062,234.946 301.894,234.993 302.87,236.098C300.014,237.934 299.913,237.758 296.542,237.432C286.599,236.472 286.36,237.819 285.747,237.211C282.822,234.306 299.657,235.87 299.727,235.817C300.255,235.421 300.212,234.514 300.74,234.118Z" style="fill:rgb(191,191,191);" />
        <path d="M356.106,402.833C355.932,405.361 355.722,405.23 355.504,407.698C351.195,406.061 344.455,401.332 348.583,401.621C350.819,401.777 354.813,400.871 356.106,402.833Z" />
        <path d="M308.655,279.728L310.402,279.718C311.258,279.891 321.647,279.937 322.661,279.691C322.336,281.001 322.306,280.953 322.688,282.305C320.323,282.2 320.345,281.867 310.366,282.224C309.828,282.213 309.289,282.202 308.751,282.191C308.41,281.91 308.07,281.629 307.729,281.347C308.003,280.427 307.962,280.51 308.655,279.728Z" style="fill:rgb(139,139,139);" />
        <path d="M336.178,323.209C338.906,323.08 338.822,323.241 341.486,323.296C350.465,323.484 337.041,328.288 336.499,328.482C336.127,327.349 335.741,327.385 336.31,326.396C336.437,326.175 336.679,325.754 336.178,323.209Z" style="fill:rgb(211,211,211);" />
        <path d="M308.606,144.631C309.158,144.683 309.71,144.735 310.262,144.786C315.743,146.469 315.903,144.382 321.468,145.468C322.729,147.068 322.61,147.115 322.743,147.228C315.759,147.37 311.334,147.27 310.342,147.248C309.056,147.361 309.158,147.33 307.853,147.062L307.665,145.595L308.606,144.631Z" style="fill:rgb(166,166,166);" />
        <path d="M310.112,260.044L310.204,261.5C310.258,267.433 309.3,267.3 309.35,267.688C309.413,268.172 310.329,268.232 310.392,268.716C310.047,268.743 308.569,268.856 306.511,270.649C305.305,270.404 305.417,270.351 304.291,269.917C306.198,268.518 306.636,268.796 307.026,266.473C307.659,262.697 306.976,262.17 310.112,260.044Z" style="fill:rgb(193,193,193);" />
        <path d="M309.492,320.495C309.97,320.571 310.068,321.417 310.545,321.493C313.011,321.886 313.033,320.165 321.366,321.358C321.502,321.909 321.639,322.46 321.776,323.011C318.238,323.391 318.313,323.231 313.478,323.293C312.443,323.031 312.535,322.994 311.395,323.177L310.385,323.215C309.758,323.051 309.131,322.887 308.504,322.722L307.472,322.339C308.345,321.229 308.337,321.366 309.492,320.495Z" style="fill:rgb(172,172,172);" />
        <path d="M300.216,113.918C304,118.99 302.151,121.785 301.279,123.308C300.67,123.103 300.061,122.899 299.453,122.695C298.406,116.081 299.221,116.065 299.106,115.5C298.791,113.948 298.169,114.488 297.778,114.064C298.995,113.889 298.928,113.891 300.216,113.918Z" style="fill:rgb(254,254,254);" />
        <path d="M322.781,144.766C323.616,144.796 324.452,144.826 325.288,144.855C325.558,144.865 325.408,145.038 325.77,145.05C326.36,145.071 326.317,145.06 333.15,145.178C333.313,145.892 333.476,146.606 333.639,147.319C329.01,147.313 329.08,147.327 324.492,147.478L323.537,147.431L322.743,147.228C322.61,147.115 322.729,147.068 321.468,145.468C321.905,145.234 322.343,145 322.781,144.766Z" style="fill:rgb(170,170,170);" />
        <path d="M380.423,362.354C387.937,363.765 388.499,363.022 389.142,364.695C389.394,365.35 389.332,367.337 380.42,365.595C380.324,363.903 380.304,364.014 380.423,362.354Z" />
        <path d="M322.544,289.536C323.278,289.394 324.012,289.251 324.747,289.109L325.485,289.515C325.626,289.812 325.287,290.203 325.428,290.501C325.516,290.687 326.676,290.909 325.398,291.404C323.57,292.111 323.602,291.25 321.643,291.29C315.879,291.41 315.935,290.784 315.5,291.014C314.973,291.293 315.029,292.22 314.502,292.498C313.77,291.716 313.801,291.767 313.235,290.813C315.159,289.746 315.088,289.41 322.544,289.536Z" style="fill:rgb(143,143,143);" />
        <path d="M426.508,382.765C429.926,382.98 430.952,383.5 429.786,386.696C429.379,387.814 424.884,388.288 424.658,387.327C423.71,383.302 426.121,382.839 426.508,382.765Z" />
        <path d="M296.685,201.886C306.971,201.52 306.908,201.984 307.794,201.919C307.506,203.061 307.561,202.994 307.882,204.039C306.965,203.938 306.963,204.354 296.357,203.67C296.466,203.075 296.576,202.48 296.685,201.886Z" style="fill:rgb(157,157,157);" />
        <path d="M296.685,201.886C296.576,202.48 296.466,203.075 296.357,203.67C290.914,204.513 290.773,205.431 285.639,203.377L286.156,202.117C288.483,201.527 288.445,201.808 296.685,201.886Z" style="fill:rgb(204,204,204);" />
        <path d="M307.634,190.701C307.527,191.385 307.42,192.069 307.313,192.752C304.76,192.816 302.208,192.88 299.655,192.945L297.346,192.886L296.38,192.724C296.466,192.634 296.508,191.115 298.438,190.563C299.145,190.361 299.067,190.781 307.634,190.701Z" style="fill:rgb(168,168,168);" />
        <path d="M323.588,354.865C327.961,354.822 327.855,354.901 332.167,355.151L332.26,356.824C331.483,356.864 323.812,357.252 322.545,356.473C322.939,355.524 322.741,355.459 323.588,354.865Z" style="fill:rgb(183,183,183);" />
        <path d="M296.53,280.521C300.008,279.861 299.915,279.546 303.445,279.804C303.975,279.843 303.909,279.826 304.487,279.739C306.019,279.509 305.82,280.041 306.886,281.155C303.269,282.463 303.227,281.983 299.32,282.101L297.687,282.128C297.299,281.914 296.911,281.7 296.523,281.486L296.53,280.521Z" style="fill:rgb(191,191,191);" />
        <path d="M296.798,125.049C297.092,125.051 297.377,125.173 297.671,125.175C300.135,125.192 299.985,124.309 300.566,124.458C300.99,124.567 300.893,125.426 301.317,125.535C301.096,128.318 301.277,128.335 299.704,130.663C296.437,129.246 296.952,128.583 296.798,125.049Z" style="fill:rgb(229,229,229);" />
        <path d="M432.655,385.346C432.645,385.127 431.033,382.049 438.4,382.98C449.641,384.401 434.904,385.888 434.516,385.928C433.239,386.056 432.773,385.383 432.655,385.346Z" style="fill:rgb(251,251,251);" />
        <path d="M322.742,193.122C324.209,193.159 324.2,193.163 324.327,193.162C324.876,193.157 324.785,193.086 325.246,193.081C324.983,197.499 324.83,197.449 325.395,201.731C324.469,201.724 323.544,201.718 322.618,201.711C322.912,197.394 322.939,197.45 322.742,193.122Z" style="fill:rgb(146,146,146);" />
        <path d="M313.601,354.824C313.248,355.365 312.896,355.907 312.544,356.449C311.901,356.521 309.062,356.839 304.468,356.8C302.869,356.786 301.486,354.665 304.502,354.623C305.23,354.613 309.898,354.549 313.601,354.824Z" style="fill:rgb(232,232,232);" />
        <path d="M296.53,280.521L296.523,281.486C296.148,281.385 295.874,282.141 295.5,282.04C295.148,281.945 295.348,281.142 294.991,281.073C294.556,280.989 294.654,281.591 289.472,281.432C286.56,281.343 283.761,281.885 285.995,279.989C288.188,278.127 295.719,280.288 296.53,280.521Z" style="fill:rgb(230,230,230);" />
        <path d="M307.665,145.595L307.853,147.062C298.282,148.494 295.197,146.118 297.33,145.317C297.806,145.138 306.839,145.557 307.665,145.595Z" style="fill:rgb(220,220,220);" />
        <path d="M333.647,204.261C334.558,204.265 335.469,204.269 336.379,204.273C336.232,208.588 336.017,208.531 336.336,212.783C335.438,212.765 334.54,212.747 333.642,212.729C333.971,208.49 333.761,208.545 333.647,204.261Z" style="fill:rgb(135,135,135);" />
        <path d="M333.763,312.154C335.052,312.26 334.992,312.263 336.26,312.158C336.213,316.567 336.104,316.475 336.29,320.793C334.962,320.608 335.061,320.673 333.812,320.841C333.903,320.174 333.861,320.187 333.763,312.154Z" style="fill:rgb(135,135,135);" />
        <path d="M344.737,312.208C346.023,312.352 345.952,312.356 347.301,312.203C347.213,316.493 347.228,316.395 347.338,320.719C345.945,320.49 346.023,320.468 344.642,320.702C344.739,316.455 344.796,316.535 344.737,312.208Z" style="fill:rgb(149,149,149);" />
        <path d="M307.475,135.714L310.569,135.834L310.174,136.5C310.24,137.704 310.337,142.796 310.262,144.786C309.71,144.735 309.158,144.683 308.606,144.631C307.74,140.585 308.067,140.65 307.894,136.5L307.475,135.714Z" style="fill:rgb(188,188,188);" />
        <path d="M366.747,402.179C368.036,402.409 367.99,402.529 369.325,402.29C369.152,406.258 369.239,406.183 369.245,410.779C367.787,410.562 367.868,410.722 366.397,411.031C367.419,408.227 366.898,408.207 366.747,402.179Z" style="fill:rgb(150,150,150);" />
        <path d="M333.598,136.325C334.106,136.349 334.045,136.335 336.383,136.272C335.69,138.702 336.254,144.094 336.325,144.77C334.993,144.559 335.094,144.522 333.721,144.724C333.761,140.456 333.709,140.559 333.598,136.325Z" style="fill:rgb(138,138,138);" />
        <path d="M388.607,147.317C389.528,147.296 390.449,147.276 391.37,147.255C390.915,151.494 391.171,151.423 391.235,155.841C389.956,155.506 390.007,155.477 388.677,155.728C388.811,151.46 388.812,151.541 388.607,147.317Z" style="fill:rgb(165,165,165);" />
        <path d="M344.576,136.371C345.519,136.36 346.461,136.35 347.404,136.339C347.239,140.568 347.21,140.5 347.352,144.726C345.965,144.556 346.036,144.475 344.62,144.669C344.72,140.486 344.692,140.547 344.576,136.371Z" style="fill:rgb(160,160,160);" />
        <path d="M344.561,368.422C346.042,368.631 345.952,368.677 347.471,368.459C346.866,372.672 347.067,372.58 347.195,376.876C345.33,377.005 345.327,376.813 344.354,377.318C344.395,377.086 344.888,377.141 344.929,376.91C345.419,374.167 344.661,369.094 344.561,368.422Z" style="fill:rgb(138,138,138);" />
        <path d="M345.75,391.18C346.178,391.132 346.605,391.085 347.033,391.037C347.126,395.374 346.913,395.31 347.421,399.668L345.561,399.817C343.402,392.837 345.551,392.614 345.75,391.18Z" style="fill:rgb(155,155,155);" />
        <path d="M333.491,300.546C335.555,301.687 335.521,301.734 335.72,301.778C335.961,301.832 335.946,301.15 336.186,301.204C336.098,301.871 335.414,307.044 336.439,309.616C335.492,309.629 334.545,309.642 333.597,309.655C333.667,309.024 334.423,302.262 334.31,301.757C334.204,301.281 333.597,301.022 333.491,300.546Z" style="fill:rgb(140,140,140);" />
        <path d="M196.25,169.031C196.592,168.785 207.286,161.11 201.274,167.436C199.941,168.839 201.426,169.11 201.447,169.338C201.216,169.459 198.561,170.85 198.561,170.85C196.88,171.358 197.183,170.497 196.25,169.031Z" style="fill:rgb(172,172,172);" />
        <path d="M333.826,357.079C334.667,357.112 335.507,357.146 336.348,357.18C336.252,358.358 335.964,358.303 336.158,359.505C336.242,360.028 336.464,361.405 335.599,366.1L334.277,366.129C333.123,362.179 334.338,359.62 333.826,357.079Z" style="fill:rgb(182,182,182);" />
        <path d="M322.764,249.209C323.573,249.187 324.382,249.165 325.191,249.142C325.007,253.495 324.793,253.405 325.375,257.695C324.459,257.687 323.544,257.68 322.629,257.672C323.045,256.238 322.756,253.431 322.764,249.209Z" style="fill:rgb(133,133,133);" />
        <path d="M333.639,147.319C335.044,147.453 334.965,147.458 336.411,147.335C335.834,149.059 336.216,155.137 336.259,155.814C334.975,155.581 335.025,155.523 333.716,155.741C333.763,151.457 333.924,151.522 333.639,147.319Z" style="fill:rgb(129,129,129);" />
        <path d="M344.607,204.349C346.028,204.571 345.974,204.6 347.408,204.355C346.732,210.361 347.298,210.305 347.379,212.664C345.983,212.402 346.027,212.39 344.611,212.659C344.9,208.496 344.79,208.552 344.607,204.349Z" style="fill:rgb(176,176,176);" />
        <path d="M333.808,182.181C334.188,182.222 334.148,182.763 336.374,182.189C336.249,186.408 336.26,186.325 336.448,190.582C334.979,190.275 335.047,190.316 333.546,190.558C333.705,186.367 333.82,186.438 333.808,182.181Z" style="fill:rgb(156,156,156);" />
        <path d="M333.741,249.211C335.039,249.418 334.967,249.412 336.28,249.219C336.212,253.493 335.904,253.419 336.448,257.58C334.966,257.329 335.006,257.361 333.579,257.607C334.102,253.365 333.804,253.446 333.741,249.211Z" style="fill:rgb(146,146,146);" />
        <path d="M344.666,193.315C346.057,193.608 345.985,193.657 347.35,193.271C347.242,197.466 347.269,197.405 347.418,201.637C345.964,201.439 346.048,201.442 344.583,201.63C344.717,197.467 344.758,197.536 344.666,193.315Z" style="fill:rgb(161,161,161);" />
        <path d="M366.548,158.436C368.036,158.634 367.952,158.597 369.383,158.287C369.217,162.244 368.995,162.164 368.842,166.182C368.057,166.281 367.273,166.381 366.489,166.48C366.882,162.412 366.732,162.506 366.548,158.436Z" style="fill:rgb(178,178,178);" />
        <path d="M366.566,136.405C367.502,136.354 368.438,136.302 369.374,136.251C368.945,140.509 369.09,140.436 369.294,144.795C367.944,144.375 368.027,144.324 366.579,144.594C366.665,140.413 366.652,140.511 366.566,136.405Z" style="fill:rgb(177,177,177);" />
        <path d="M355.57,204.397C357.007,204.591 356.923,204.568 358.376,204.276C357.788,209.65 358.248,209.605 358.36,212.699C356.985,212.3 357.037,212.276 355.571,212.589C355.874,208.412 355.752,208.518 355.57,204.397Z" style="fill:rgb(180,180,180);" />
        <path d="M344.554,147.417C346.029,147.631 345.964,147.556 347.424,147.368C346.794,151.402 347.685,151.462 346.579,155.388C345.945,155.498 345.312,155.608 344.678,155.718C344.735,151.496 344.684,151.605 344.554,147.417Z" style="fill:rgb(150,150,150);" />
        <path d="M334.146,193.886C334.887,193.695 335.628,193.504 336.369,193.313C336.245,197.536 336.292,197.469 336.419,201.632C334.98,201.395 335.081,201.388 333.563,201.594C333.702,197.69 333.954,197.771 334.146,193.886Z" style="fill:rgb(165,165,165);" />
        <path d="M355.542,147.44C357.051,147.723 356.985,147.684 358.431,147.389C358.239,151.563 358.201,151.501 358.306,155.742C356.938,155.443 357.022,155.381 355.631,155.662C355.705,151.496 355.674,151.561 355.542,147.44Z" style="fill:rgb(165,165,165);" />
        <path d="M333.644,260.325C335.018,260.6 334.962,260.626 336.369,260.328C336.226,264.478 336.068,264.396 336.514,268.479L334.141,268.1C333.973,264.147 333.757,264.228 333.644,260.325Z" style="fill:rgb(159,159,159);" />
        <path d="M313.601,354.824C320.696,354.698 320.852,354.329 321.5,355.019C321.778,355.315 321.626,355.871 321.904,356.167C321.186,356.381 317.158,357.584 312.544,356.449C312.896,355.907 313.248,355.365 313.601,354.824Z" style="fill:rgb(216,216,216);" />
        <path d="M355.565,136.4C357.05,136.648 356.962,136.593 358.418,136.361C357.656,141.724 358.251,141.705 358.375,144.67C356.993,144.308 357.04,144.296 355.592,144.616C355.676,141.744 356.104,141.83 355.565,136.4Z" style="fill:rgb(175,175,175);" />
        <path d="M378.254,402.782C378.969,402.651 379.684,402.521 380.399,402.39C380.352,406.596 380.273,406.492 380.436,410.599C379.737,410.492 379.039,410.385 378.34,410.279C377.474,407.39 378.076,404.409 378.254,402.782Z" style="fill:rgb(176,176,176);" />
        <path d="M344.682,357.307C346.1,357.627 346.021,357.677 347.425,357.392C347.268,361.584 347.199,361.496 347.233,365.766C345.977,365.465 346.021,365.504 344.83,365.792C345.348,361.559 345.029,361.649 344.682,357.307Z" style="fill:rgb(139,139,139);" />
        <path d="M322.707,260.193L324.382,260.264C324.454,260.943 325.052,266.57 325.297,268.746C323.933,268.513 324.01,268.428 322.639,268.665C322.678,264.427 322.686,264.509 322.707,260.193Z" style="fill:rgb(138,138,138);" />
        <path d="M355.653,125.294C356.286,125.387 356.919,125.48 357.552,125.574C357.725,126.196 358.083,127.49 358.433,133.601C356.97,133.225 357.014,133.24 355.532,133.545C355.681,129.392 355.719,129.49 355.653,125.294Z" style="fill:rgb(173,173,173);" />
        <path d="M333.563,215.397C335.042,215.551 334.977,215.512 336.425,215.367C335.893,219.325 336.051,219.255 335.852,223.179L334.186,223.109C333.977,219.222 333.678,219.311 333.563,215.397Z" style="fill:rgb(152,152,152);" />
        <path d="M356.227,391.778C356.895,391.606 357.562,391.435 358.229,391.263C358.213,395.452 358.29,395.367 358.431,399.591C356.972,399.326 357.048,399.39 355.58,399.599C355.668,398.977 355.872,397.529 356.227,391.778Z" style="fill:rgb(142,142,142);" />
        <path d="M322.601,136.256L324.445,136.315C325.344,140.56 324.701,140.569 325.288,144.855C324.452,144.826 323.616,144.796 322.781,144.766C322.961,143.534 322.634,136.936 322.601,136.256Z" style="fill:rgb(166,166,166);" />
        <path d="M367.257,391.763L368.674,391.731C368.697,392.029 369.202,392.143 369.224,392.441C369.224,392.441 369.443,398.987 369.462,399.556C367.95,399.315 368.036,399.352 366.549,399.574C366.755,398.982 366.793,398.87 367.257,391.763Z" style="fill:rgb(148,148,148);" />
        <path d="M322.612,271.346L324.522,271.537C324.986,275.557 325.237,275.498 324.512,279.479L322.661,279.691C322.661,279.668 323.058,273.151 322.612,271.346Z" style="fill:rgb(137,137,137);" />
        <path d="M366.54,368.443C368.072,368.732 367.986,368.791 369.575,368.601C368.856,372.646 369.27,372.597 369.321,376.676C368.588,376.495 367.855,376.315 367.121,376.134C366.837,369.264 366.75,369.024 366.54,368.443Z" style="fill:rgb(173,173,173);" />
        <path d="M344.963,380.147C345.67,380.132 346.377,380.116 347.084,380.101C347.093,388.205 347.596,388.156 347.61,388.353C346.374,387.625 346.374,387.648 344.951,387.892C344.891,384 344.865,384.065 344.963,380.147Z" style="fill:rgb(150,150,150);" />
        <path d="M333.834,238.205C335.033,238.518 334.982,238.529 336.221,238.21C335.439,242.39 335.729,242.372 336.479,246.529C334.935,246.228 335,246.249 333.515,246.52C334.184,242.338 334.376,242.371 333.834,238.205Z" style="fill:rgb(133,133,133);" />
        <path d="M334.53,379.423L335.495,379.464C336.479,383.881 337.103,383.959 335.542,388.275C332.172,384.924 334.043,384.281 334.53,379.423Z" style="fill:rgb(206,206,206);" />
        <path d="M308.711,193.165C309.252,193.168 309.793,193.171 310.334,193.173C310.33,197.552 310.316,197.46 310.366,201.75L308.615,201.69C307.716,197.446 308.145,195.567 308.711,193.165Z" style="fill:rgb(158,158,158);" />
        <path d="M282.458,201.7C283.477,202.516 283.399,202.446 283.477,202.516C284.052,203.033 283.941,203.051 284.486,203.541C280.493,204.002 280.485,202.971 276.574,203.738C274.334,204.178 274.267,201.874 276.51,201.648C276.595,201.639 280.729,201.735 282.458,201.7Z" style="fill:rgb(234,234,234);" />
        <path d="M378.152,368.98C378.958,368.85 379.763,368.721 380.569,368.591C380.249,372.667 380.322,372.578 380.384,376.607C379.635,376.464 378.886,376.322 378.137,376.179C377.955,371.693 377.685,371.754 378.152,368.98Z" style="fill:rgb(177,177,177);" />
        <path d="M322.743,147.228L323.537,147.431C323.85,147.778 324.164,148.126 324.478,148.474C324.995,151.337 325.593,151.335 324.284,155.851C323.801,155.86 323.318,155.869 322.835,155.878C322.818,155.083 322.822,155.146 322.743,147.228Z" style="fill:rgb(192,192,192);" />
        <path d="M345.042,346.799C345.876,347.135 346.71,347.47 347.544,347.806C346.802,351.212 347.027,351.166 347.433,354.601C346.001,354.301 346.038,354.374 344.653,354.666C345.037,350.698 344.883,350.778 345.042,346.799Z" style="fill:rgb(159,159,159);" />
        <path d="M333.5,226.5C335.044,226.833 334.978,226.831 336.595,226.622C336.292,227.15 336.23,227.257 335.818,234.191L334.156,234.154C333.329,230.373 334.149,230.338 333.5,226.5Z" style="fill:rgb(134,134,134);" />
        <path d="M293.56,164.675C295.589,166.464 295.84,165.853 298.272,167.184C294.327,168.612 294.425,169.223 290.316,168.752C289.821,168.695 289.996,167.554 289.5,167.497C291.839,166.501 291.93,166.66 293.56,164.675Z" style="fill:rgb(185,185,185);" />
        <path d="M345.344,158.742C346.043,158.632 346.741,158.523 347.44,158.414C346.84,162.405 347.208,162.365 347.364,165.733C345.944,165.553 346.043,165.459 344.608,165.68C344.808,162.166 344.611,162.234 345.344,158.742Z" style="fill:rgb(188,188,188);" />
        <path d="M322.679,334.2C323.633,334.523 324.587,334.846 325.541,335.169C325.415,335.624 325.184,336.045 325.057,336.5C324.392,338.897 325.774,339.02 324.873,341.386C324.615,342.062 323.267,341.824 323.009,342.5C322.776,338.349 322.741,338.423 322.679,334.2Z" style="fill:rgb(190,190,190);" />
        <path d="M294.279,321.78C294.358,323.743 293.576,323.245 292.461,323.275C291.969,323.288 286.896,323.421 286.35,322.602C285.996,322.072 285.926,319.396 294.279,321.78Z" style="fill:rgb(225,225,225);" />
        <path d="M323.739,312.01L324.403,312.159C324.456,312.43 324.914,314.763 324.912,315.574C324.909,317.843 324.54,317.691 324.049,319.985C323.986,320.275 324.449,320.518 324.387,320.808L322.837,320.944C322.506,316.367 321.987,316.291 323.739,312.01Z" style="fill:rgb(196,196,196);" />
        <path d="M367.063,358.74C367.804,358.55 368.545,358.36 369.287,358.17C369.231,362.014 369.233,361.918 369.323,365.7C367.979,365.379 368.05,365.42 366.759,365.766C366.769,365.203 366.842,365.223 367.063,358.74Z" style="fill:rgb(158,158,158);" />
        <path d="M325.75,321.186C329.277,320.867 329.228,321.094 333.246,321.278C333.41,321.951 333.573,322.623 333.737,323.296C332.418,322.973 327.65,323.248 325.335,323.261C325.474,322.569 325.612,321.878 325.75,321.186Z" style="fill:rgb(155,155,155);" />
        <path d="M322.76,182.229C324.052,182.487 324.014,182.48 325.286,182.192C325.094,184.436 324.748,188.749 324.702,189.319C324.118,189.483 323.535,189.647 322.952,189.811C322.709,185.942 323.338,186.004 322.76,182.229Z" style="fill:rgb(151,151,151);" />
        <path d="M344.783,238.21C346.026,238.525 345.969,238.535 347.246,238.213C346.925,240.11 347.207,240.816 347.113,242.552C347.007,244.499 346.888,244.444 347.547,246.308C346.725,245.925 345.903,245.542 345.082,245.159C344.727,238.673 344.864,238.76 344.783,238.21Z" style="fill:rgb(141,141,141);" />
        <path d="M308.674,271.206L310.374,271.228C310.318,275.516 310.398,275.419 310.402,279.718L308.655,279.728C307.986,275.065 308.554,271.878 308.674,271.206Z" style="fill:rgb(186,186,186);" />
        <path d="M323.201,216.782L324.724,216.717C324.954,220.082 324.918,220.021 324.629,223.359C324.018,223.5 323.407,223.64 322.796,223.78C322.931,221.448 323.066,219.115 323.201,216.782Z" style="fill:rgb(134,134,134);" />
        <path d="M286.367,111.591C286.836,108.71 287.143,108.403 287.343,109.371C287.381,110.411 287.438,111.228 287.498,111.51L286.367,111.591Z" style="fill:rgb(224,224,224);" />
        <path d="M323.356,227.664L324.657,227.662C324.906,231.044 324.947,230.948 324.716,234.282C324.101,234.439 323.486,234.597 322.87,234.754C322.828,231.142 322.922,231.204 323.356,227.664Z" style="fill:rgb(150,150,150);" />
        <path d="M322.862,238.164C323.658,238.157 323.603,238.07 324.375,238.321C325.523,242.483 324.91,242.49 324.802,245.262L323.152,245.072C322.831,241.595 322.795,241.654 322.862,238.164Z" style="fill:rgb(142,142,142);" />
        <path d="M378.193,380.769C378.884,380.622 379.574,380.476 380.265,380.329C380.27,382.779 380.276,385.228 380.282,387.678C379.589,387.536 378.895,387.394 378.202,387.253C377.9,383.983 377.975,384.071 378.193,380.769Z" style="fill:rgb(152,152,152);" />
        <path d="M424.613,397.366C424.364,391.619 432.421,395.328 429.17,397.065C426.984,398.233 426.948,397.909 424.613,397.366Z" style="fill:rgb(214,214,214);" />
        <path d="M302.665,320.35C303.296,321.014 303.927,321.679 304.558,322.344C303.044,322.725 303.169,323.089 301.565,323.097C298.454,323.113 296.524,324.353 297.22,321.322L298.375,321.128C300.612,321.165 300.505,320.976 302.665,320.35Z" style="fill:rgb(187,187,187);" />
        <path d="M367.18,380.8L368.776,380.86C369.035,384.006 369.069,383.916 368.837,387.112L367.156,387.193C367.005,383.937 367.006,384.018 367.18,380.8Z" style="fill:rgb(156,156,156);" />
        <path d="M297.346,192.886L299.655,192.945C297.652,197.26 301.135,202.321 297.188,199.617C296.647,199.246 297.366,193.495 297.346,192.886Z" style="fill:rgb(208,208,208);" />
        <path d="M334.38,369.623L335.437,369.42C336.349,371.943 336.798,371.884 336.182,374.513C335.885,375.782 335.045,375.637 335.589,377.047L334.744,376.967C333.425,373.428 333.957,373.37 334.38,369.623Z" style="fill:rgb(193,193,193);" />
        <path d="M355.649,312.332C357.006,312.681 356.955,312.705 358.387,312.362C358.166,315.57 358.173,315.511 358.4,318.7C357.61,318.581 356.819,318.461 356.029,318.342C355.911,315.326 355.761,315.394 355.649,312.332Z" style="fill:rgb(162,162,162);" />
        <path d="M322.615,368.359C323.256,368.447 323.897,368.534 324.538,368.622C324.586,371.057 324.522,371 324.633,373.482C324.693,374.813 325.006,375.343 323.606,375.321C319.179,375.25 322.658,372.824 322.615,368.359Z" style="fill:rgb(207,207,207);" />
        <path d="M333.967,347.301C335.035,347.551 334.947,347.549 336.025,347.289C336.257,350.439 336.075,350.385 335.709,353.306L334.211,353.217C333.996,350.242 333.869,350.301 333.967,347.301Z" style="fill:rgb(184,184,184);" />
        <path d="M323.37,345.726L324.567,345.791C324.889,348.513 324.814,350.152 324.796,350.531C324.665,353.352 323.416,351.897 322.652,351.472C322.674,351.15 322.141,348.807 323.37,345.726Z" style="fill:rgb(204,204,204);" />
        <path d="M307.853,147.062C309.158,147.33 309.056,147.361 310.342,147.248C309.741,150.904 310.608,150.877 309.97,154.5C309.544,153.633 308.93,154.377 308.5,153.5C308.429,153.356 308.442,153.382 308.498,151.5C308.568,149.138 308.968,149.095 307.853,147.062Z" style="fill:rgb(228,228,228);" />
        <path d="M356.106,402.833C356.852,402.67 357.597,402.507 358.342,402.344C358.216,405.431 358.461,405.386 357.692,408.357C356.963,408.138 356.233,407.918 355.504,407.698C355.722,405.23 355.932,405.361 356.106,402.833Z" style="fill:rgb(153,153,153);" />
        <path d="M230.347,289.991L231.794,290.624C228.836,293.257 228.837,293.142 225.843,295.762C225.323,295.043 224.803,294.324 224.283,293.605C224.624,293.439 225.067,293.941 225.408,293.775C225.408,293.775 229.952,290.294 230.347,289.991Z" style="fill:rgb(173,173,173);" />
        <path d="M322.688,282.305C323.318,282.411 323.948,282.517 324.579,282.623C324.94,285.543 324.949,285.473 324.66,288.338C324.05,288.452 323.439,288.565 322.829,288.679C322.752,285.437 323.404,285.445 322.688,282.305Z" style="fill:rgb(134,134,134);" />
        <path d="M323.199,205.805L324.776,205.763C324.949,208.533 324.993,208.453 324.815,211.261L323.127,211.119C322.739,208.404 322.762,208.47 323.199,205.805Z" style="fill:rgb(157,157,157);" />
        <path d="M277.325,167.276C282.798,165.299 283.43,168.378 283.504,168.482C281.907,168.855 281.983,168.796 280.33,169.223C279.255,169.501 279.538,169.808 278.711,170.419C278.471,169.977 278.231,169.534 277.991,169.091C277.797,168.083 277.826,168.142 277.325,167.276Z" style="fill:rgb(189,189,189);" />
        <path d="M309.5,335.566C309.572,335.737 310.4,335.429 310.419,338.511C310.425,339.541 310.353,339.48 310.356,340.455C310.358,341.433 309.98,341.185 309.5,342.118C308.998,341.234 308.662,341.443 308.563,340.468C308.255,337.409 308.58,337.452 309.5,335.566Z" style="fill:rgb(218,218,218);" />
        <path d="M287.46,246.72C289.348,246.535 289.336,246.527 289.499,246.52C291.548,246.444 291.46,246.619 293.491,246.544C293.484,249.951 291.816,248.468 288.407,248.395C288.259,247.996 288.248,248.041 287.46,246.72Z" style="fill:rgb(225,225,225);" />
        <path d="M334.28,340.637C335.553,341.081 335.839,340.875 338.785,342.101L338.641,343.651C337.115,343.458 335.589,343.265 334.063,343.072C334.136,342.26 334.208,341.449 334.28,340.637Z" style="fill:rgb(173,173,173);" />
        <path d="M287.564,111.511L287.498,111.51L286.367,111.591C286.836,108.71 287.143,108.403 287.343,109.371C287.439,109.837 287.511,110.599 287.564,111.511Z" style="fill:rgb(226,226,226);" />
        <path d="M324.704,177.79C325.86,177.382 325.958,176.843 329.657,178.293C329.425,178.646 329.852,179.207 329.619,179.56C329.465,179.795 324.511,180.414 324.999,178.507C324.999,178.507 324.727,177.848 324.704,177.79Z" style="fill:rgb(252,252,252);" />
        <path d="M308.751,282.191C309.289,282.202 309.828,282.213 310.366,282.224C310.408,284.962 310.329,284.875 309.819,287.5C309.771,287.439 308.003,287.189 308.261,284.464C308.261,284.464 308.712,282.373 308.751,282.191Z" style="fill:rgb(171,171,171);" />
        <path d="M297.687,282.128L299.32,282.101C299.242,286.563 299.006,286.585 298.643,286.617C295.525,286.898 296.94,285.171 297.687,282.128Z" style="fill:rgb(224,224,224);" />
        <path d="M323.077,177.866C322.056,180.236 321.653,180.525 319.191,179.642C318.863,179.525 319.121,178.793 318.793,178.675C320.843,176.635 321.595,175.406 323.077,177.866Z" style="fill:rgb(245,245,245);" />
        <path d="M308.504,322.722C309.131,322.887 309.758,323.051 310.385,323.215C310.455,327.964 310.5,328.033 310.195,328.303C308.586,329.733 308.66,326.013 308.504,322.722Z" style="fill:rgb(219,219,219);" />
        <path d="M362.978,354.42C362.577,354.535 356.096,356.402 357.794,353.816C359.535,351.164 360.095,353.144 362.978,354.42Z" style="fill:rgb(232,232,232);" />
        <path d="M322.837,320.944L324.387,320.808C324.841,320.934 325.295,321.06 325.75,321.186C325.612,321.878 325.474,322.569 325.335,323.261C324.015,323.399 324.066,323.458 322.765,323.254C322.629,322.632 322.494,322.01 322.358,321.388L322.837,320.944Z" style="fill:rgb(154,154,154);" />
        <path d="M192.47,167.245L192.675,168.462C190.881,170.232 191.028,170.374 188.711,171.256C188.705,171.125 188.633,169.621 188.633,169.621C188.91,169.389 188.917,169.445 192.47,167.245Z" style="fill:rgb(144,144,144);" />
        <path d="M322.527,362.497C322.72,361.517 322.328,360.481 322.521,359.501C322.588,359.161 324.442,359.139 324.548,359.501C325.339,362.223 324.659,363.232 324.48,363.497C323.616,364.778 323.369,361.248 322.527,362.497Z" style="fill:rgb(218,218,218);" />
        <path d="M322.765,323.254C324.066,323.458 324.015,323.399 325.335,323.261C324.818,325.495 324.875,325.424 323.934,327.5C323.653,327.046 322.942,326.981 322.661,326.526C322.577,326.39 323.069,324.85 322.765,323.254Z" style="fill:rgb(179,179,179);" />
        <path d="M378.209,361.682C378.947,361.906 379.685,362.13 380.423,362.354C380.304,364.014 380.324,363.903 380.42,365.595C379.64,365.438 378.861,365.281 378.081,365.124C378.124,363.977 378.167,362.83 378.209,361.682Z" style="fill:rgb(172,172,172);" />
        <path d="M344.56,130.393C345.336,130.451 346.112,130.51 346.887,130.569C346.936,131.434 346.966,131.354 347.379,133.676C345.921,133.431 345.989,133.324 344.555,133.584C344.557,132.52 344.559,131.456 344.56,130.393Z" style="fill:rgb(156,156,156);" />
        <path d="M334.441,329.399C334.22,329.474 323.937,332.937 331.648,328.587C333.178,327.723 333.438,327.869 334.441,329.399Z" style="fill:rgb(179,179,179);" />
        <path d="M310.013,352.118C307.777,352.097 308.536,348.86 308.739,348.674C308.956,348.476 311.259,347.597 310.013,352.118Z" style="fill:rgb(227,227,227);" />
        <path d="M290.437,146.5C290.479,146.314 289.606,146.005 290.614,145.716C293.357,144.929 294.697,147.289 292.498,147.485C292.347,147.499 292.358,147.47 290.614,147.284L290.437,146.5Z" style="fill:rgb(225,225,225);" />
        <path d="M277.325,167.276C277.826,168.142 277.797,168.083 277.991,169.091C275.49,169.237 274.599,170.355 274.426,168.488C274.347,167.634 276.684,167.398 277.325,167.276Z" style="fill:rgb(202,202,202);" />
        <path d="M287.46,246.72C288.248,248.041 288.259,247.996 288.407,248.395C286.393,248.894 285.267,249.596 285.526,247.508C285.655,246.468 286.042,246.937 287.46,246.72Z" style="fill:rgb(210,210,210);" />
        <path d="M308.594,187.162C309.13,187.136 309.667,187.111 310.204,187.085C309.899,188.88 309.916,188.86 310.442,190.604L309.488,190.547C309.393,190.395 308.296,188.647 308.296,188.647C308.178,188.156 308.712,187.653 308.594,187.162Z" style="fill:rgb(149,149,149);" />
        <path d="M282.458,201.7C284.399,201.81 284.333,201.56 286.156,202.117L285.639,203.377L284.486,203.541C283.941,203.051 284.052,203.033 283.477,202.516C283.399,202.446 283.477,202.516 282.458,201.7Z" style="fill:rgb(235,235,235);" />
        <path d="M297.5,268.803C301.581,270.515 297.767,271.1 297.599,271.038C296.205,270.532 296.822,270.067 297.5,268.803Z" style="fill:rgb(161,161,161);" />
        <path d="M404.706,402.844C404.526,402.903 397.302,405.299 402.71,401.562C403.269,401.176 403.444,401.288 403.5,401.324C404.343,401.865 403.799,402.261 404.706,402.844Z" style="fill:rgb(162,162,162);" />
        <path d="M308.98,170.578C309.26,172.722 308.374,173.562 306.88,172.077C305.835,171.038 307.131,171.264 308.98,170.578Z" style="fill:rgb(169,169,169);" />
        <path d="M146.564,249.589C146.592,250.207 146.62,250.825 146.649,251.444C146.502,251.418 141.626,250.041 146.564,249.589Z" style="fill:rgb(212,212,212);" />
        <path d="M322.652,204.216C323.562,204.22 324.471,204.225 325.38,204.229L324.776,205.763L323.199,205.805L322.652,204.216Z" style="fill:rgb(141,141,141);" />
        <path d="M323.127,211.119L324.815,211.261L325.27,212.856C324.404,212.822 323.537,212.787 322.671,212.753C322.823,212.208 322.975,211.664 323.127,211.119Z" style="fill:rgb(134,134,134);" />
        <path d="M340.268,264.282C336.064,264.12 340.104,262.568 340.233,262.678C340.331,262.761 340.236,262.797 340.268,264.282Z" style="fill:rgb(166,166,166);" />
        <path d="M322.662,215.257C323.586,215.291 324.509,215.324 325.433,215.357L324.724,216.717L323.201,216.782L322.662,215.257Z" style="fill:rgb(133,133,133);" />
        <path d="M333.914,346.125C335.038,346.272 334.978,346.281 336.097,346.06L336.025,347.289C334.947,347.549 335.035,347.551 333.967,347.301L333.914,346.125Z" style="fill:rgb(145,145,145);" />
        <path d="M334.211,353.217L335.709,353.306L336.37,354.734C334.987,354.621 335.061,354.623 333.739,354.773C333.896,354.255 334.053,353.736 334.211,353.217Z" style="fill:rgb(174,174,174);" />
        <path d="M348.955,323.759C346.695,324.595 346.705,324.754 346.519,324.66C345.196,323.992 346.574,323.868 347.5,322.757L348.955,323.759Z" style="fill:rgb(138,138,138);" />
        <path d="M322.952,189.811C323.535,189.647 324.118,189.483 324.702,189.319L325.438,190.628C324.478,190.622 323.518,190.615 322.558,190.609L322.952,189.811Z" style="fill:rgb(140,140,140);" />
        <path d="M366.673,357.228C369.382,357.611 369.323,357.78 369.558,357.791L369.287,358.17C368.545,358.36 367.804,358.55 367.063,358.74L366.673,357.228Z" style="fill:rgb(151,151,151);" />
        <path d="M192.47,167.245C192.893,167.119 193.076,166.538 193.499,166.412C193.668,166.361 195.112,166.972 192.675,168.462L192.47,167.245Z" style="fill:rgb(203,203,203);" />
        <path d="M338.785,342.101C339.922,342.965 341.223,342.222 340.579,343.464C340.309,343.983 339.598,344.052 339.5,344.061C338.94,344.115 339.165,343.6 338.641,343.651L338.785,342.101Z" style="fill:rgb(184,184,184);" />
        <path d="M322.526,226.457C324.047,226.604 323.98,226.575 325.488,226.481L324.657,227.662L323.356,227.664C323.079,227.262 322.803,226.86 322.526,226.457Z" style="fill:rgb(131,131,131);" />
        <path d="M367.156,387.193L368.837,387.112L369.63,388.322C367.969,388.152 368.071,388.168 366.419,388.384C366.664,387.987 366.91,387.59 367.156,387.193Z" style="fill:rgb(130,130,130);" />
        <path d="M323.152,245.072L324.802,245.262L324.683,246.214C323.945,246.297 323.208,246.379 322.47,246.462C322.697,245.999 322.924,245.535 323.152,245.072Z" style="fill:rgb(145,145,145);" />
        <path d="M333.739,354.773C333.59,355.409 333.441,356.045 333.292,356.681L332.26,356.824L332.167,355.151C332.691,355.025 333.215,354.899 333.739,354.773Z" style="fill:rgb(167,167,167);" />
        <path d="M322.87,234.754C323.486,234.597 324.101,234.439 324.716,234.282L325.492,235.51C323.957,235.304 324.046,235.281 322.482,235.479L322.87,234.754Z" style="fill:rgb(132,132,132);" />
        <path d="M334.156,234.154L335.818,234.191L336.55,235.432C334.975,235.155 335.034,235.171 333.451,235.442L334.156,234.154Z" style="fill:rgb(136,136,136);" />
        <path d="M321.366,321.358L322.358,321.388C322.494,322.01 322.629,322.632 322.765,323.254L321.776,323.011C321.639,322.46 321.502,321.909 321.366,321.358Z" style="fill:rgb(173,173,173);" />
        <path d="M322.829,288.679C323.439,288.565 324.05,288.452 324.66,288.338L324.747,289.109C324.012,289.251 323.278,289.394 322.544,289.536L322.829,288.679Z" style="fill:rgb(136,136,136);" />
        <path d="M252.651,276.637C252.776,276.946 252.006,277.184 252.131,277.494C252.131,277.494 253.385,278.291 253.494,278.36L252.479,278.694C252.537,278.008 252.594,277.322 252.651,276.637Z" style="fill:rgb(161,161,161);" />
        <path d="M230.347,289.991C231.631,289.687 232.229,288.285 232.134,289.568C232.089,290.169 231.838,290.034 231.794,290.624L230.347,289.991Z" style="fill:rgb(171,171,171);" />
        <path d="M334.454,368.575L335.519,368.558L335.437,369.42L334.38,369.623L334.454,368.575Z" style="fill:rgb(164,164,164);" />
        <path d="M323.537,147.431L324.492,147.478L324.478,148.474C324.164,148.126 323.85,147.778 323.537,147.431Z" style="fill:rgb(169,169,169);" />
        <path d="M348.955,323.759L347.5,322.757C349.199,323.35 349.263,323.259 349.335,323.397C349.415,323.553 348.874,323.604 348.955,323.759Z" style="fill:rgb(191,191,191);" />
        <path d="M177.497,267.508C177.842,268.01 178.687,267.998 179.032,268.5C180.035,269.96 178.548,268.999 178.5,268.968C177.72,268.464 178.341,268.054 177.497,267.508Z" style="fill:rgb(220,220,220);" />
        <path d="M311.395,323.177C312.535,322.994 312.443,323.031 313.478,323.293L311.395,323.177Z" style="fill:rgb(205,205,205);" />
        <path d="M307.305,367.721C297.18,359.183 296.017,354.216 291.13,360.236C290.778,360.67 290.772,360.609 286.288,365.276C273.539,374.114 273.152,375.522 274.404,375.691C277.13,376.061 284.174,367.946 285.418,369.534C285.634,369.811 285.468,370.277 285.685,370.554C285.044,371.498 282.629,375.062 275.353,380.389C273.463,381.829 270.25,383.123 271.5,385.185L271.936,386.912C254.915,399.662 250.02,406.206 237.536,403.385C236.654,403.185 224.668,403.728 229.725,401.829C230.546,401.521 239.375,401.266 236.836,399.096C235.478,397.934 235.195,399.92 214.508,399.798C201.71,399.723 119.711,403.807 92.444,416.386C78.67,422.741 45.592,398.633 46.798,391.577C47.876,385.269 50.126,386.793 56.516,387.231C74.166,388.44 74.191,387.97 91.452,384.28C94.297,383.672 151.371,376.682 151.53,376.532C152.084,376.01 151.729,372.916 153.57,361.506C154.326,356.822 148.919,360.413 134.542,361.98C126.838,362.82 125.914,365.986 115.506,364.463C98.47,361.968 87.408,347.387 87.552,345.504C87.903,340.906 89.885,342.361 94.421,342.978C106.468,344.615 106.429,343.127 118.551,341.821C121.767,341.475 150.97,336.494 152.62,335.683C156.213,333.917 147.91,305.228 146.309,318.473C146.161,319.696 145.105,328.425 133.563,327.102C121.03,325.665 110.418,308.546 110.142,302.521C109.856,296.28 110.25,296.153 107.302,290.602C105.02,286.306 107.574,286.06 112.487,285.953C124.016,285.701 134.344,297.724 138.352,296.108C152.87,290.253 153.12,286.217 170.556,282.669C172.852,282.202 172.248,280.865 174.51,280.566C193.451,278.057 207.828,288.863 208.439,288.92C217.587,289.768 239.267,276.725 245.504,277.514C246.511,277.641 246.416,277.507 247.499,277.499L248.21,277.089C250.163,278.61 250.038,279.228 252.479,278.694L253.494,278.36C258.078,277.167 290.545,269.689 291.27,269.127C294.225,266.836 294.346,266.488 299.549,267.154C302.195,268.163 302.29,267.882 304.291,269.917C305.417,270.351 305.305,270.404 306.511,270.649C308.016,270.945 308.008,270.936 308.137,270.968C308.454,271.048 308.366,271.129 308.674,271.206C308.554,271.878 307.986,275.065 308.655,279.728C307.962,280.51 308.003,280.427 307.729,281.347L308.751,282.191L308.261,284.464C308.003,287.189 309.771,287.439 309.819,287.5L309.463,288.586C302.125,287.288 291.718,292.568 273.574,295.79C268.544,296.683 272.981,298.361 275.087,299.956C283.534,306.354 284.373,308.259 294.195,314.932C296.858,316.74 296.319,317.625 299.519,318.371C301.105,318.74 300.91,319.019 302.665,320.35C300.505,320.976 300.612,321.165 298.375,321.128L297.22,321.322C296.524,324.353 298.454,323.113 301.565,323.097C303.169,323.089 303.044,322.725 304.558,322.344C306.031,322.522 305.97,322.563 307.472,322.339L308.504,322.722C308.66,326.013 308.586,329.733 310.195,328.303C310.5,328.033 310.455,327.964 310.385,323.215L311.395,323.177L313.478,323.293C318.313,323.231 318.238,323.391 321.776,323.011L322.765,323.254C323.069,324.85 322.577,326.39 322.661,326.526C322.942,326.981 323.653,327.046 323.934,327.5L323.543,328.623C320.904,329.481 319.92,328.674 319.502,331.499C318.992,331.772 319.011,332.645 318.5,332.919C317.442,333.484 317.346,332.012 303.51,332.546C299.284,332.709 295.449,332.264 296.924,334.068C297.75,335.078 307.656,334.393 308.587,334.328L309.5,335.566C308.58,337.452 308.255,337.409 308.563,340.468C308.662,341.443 308.998,341.234 309.5,342.118L308.507,343.515C302.54,343.492 302.565,342.755 296.741,343.841C296.297,343.924 289.6,342.841 290.913,345.001C291.464,345.908 319.786,345.088 323.37,345.726C322.141,348.807 322.674,351.15 322.652,351.472C322.823,353.3 322.936,353.211 323.588,354.865C322.741,355.459 322.939,355.524 322.545,356.473C323.812,357.252 331.483,356.864 332.26,356.824L333.292,356.681L333.826,357.079C334.338,359.62 333.123,362.179 334.277,366.129C329.385,366.329 329.443,366.323 324.553,366.236C315.846,367.531 313.984,364.709 307.305,367.721ZM286.665,357.825C305.401,344.605 273.737,362.416 273.657,362.566C271.697,366.271 285.217,358.583 286.665,357.825ZM225.843,295.762C225.608,296.039 220.594,301.341 222.221,305.619C223.32,308.511 222.601,308.528 221.989,311.582C221.452,314.265 216.025,316.94 214.471,317.03C185.563,318.703 182.954,283.484 168.499,285.261C153.703,287.08 148.057,300.425 147.204,302.441C145.899,305.527 150.557,303.035 151.526,302.976C168.081,301.968 182.224,309.525 183.289,309.992C198.634,316.718 192.751,329.424 197.516,328.636C216.317,325.526 216.122,321.046 222.425,323.686C241.703,331.758 243.137,330.508 246.303,334.643C247.319,335.97 246.946,345.975 246.657,346.57C244.159,351.713 239.859,350.811 232.507,350.358C224.576,349.869 202.784,352.141 202.436,352.216C195.393,353.755 193.175,352 193.051,356.48C193.018,357.676 192.648,371.004 192.728,371.433C192.975,372.75 193.468,373.247 209.467,372.034C221.578,371.116 221.488,371.399 233.513,370.706C237.424,370.481 263.124,363.709 267.222,361.114C273.351,357.232 274.062,358.96 280.629,355.76C286.794,352.755 290.875,351.635 288.264,348.706C282.823,342.6 282.492,343.029 277.05,336.894C263.147,321.22 263.742,320.825 262.443,319.56C256.555,313.825 252.787,304.439 249.106,299.84C246.739,296.883 247.067,296.574 246.625,279.468C244.627,279.518 237.63,279.69 224.982,291.954C224.196,292.716 224.301,293.562 224.283,293.605L225.843,295.762ZM322.527,362.497C323.369,361.248 323.616,364.778 324.48,363.497C324.659,363.232 325.339,362.223 324.548,359.501C324.442,359.139 322.588,359.161 322.521,359.501C322.328,360.481 322.72,361.517 322.527,362.497ZM294.279,321.78C285.926,319.396 285.996,322.072 286.35,322.602C286.896,323.421 291.969,323.288 292.461,323.275C293.576,323.245 294.358,323.743 294.279,321.78ZM297.5,268.803C296.822,270.067 296.205,270.532 297.599,271.038C297.767,271.1 301.581,270.515 297.5,268.803ZM310.013,352.118C311.259,347.597 308.956,348.476 308.739,348.674C308.536,348.86 307.777,352.097 310.013,352.118ZM296.523,281.486L297.687,282.128C296.94,285.171 295.525,286.898 298.643,286.617C299.006,286.585 299.242,286.563 299.32,282.101C303.227,281.983 303.269,282.463 306.886,281.155C305.82,280.041 306.019,279.509 304.487,279.739C303.909,279.826 303.975,279.843 303.445,279.804C299.915,279.546 300.008,279.861 296.53,280.521C295.719,280.288 288.188,278.127 285.995,279.989C283.761,281.885 286.56,281.343 289.472,281.432C294.654,281.591 294.556,280.989 294.991,281.073C295.348,281.142 295.148,281.945 295.5,282.04C295.874,282.141 296.148,281.385 296.523,281.486ZM312.544,356.449C317.158,357.584 321.186,356.381 321.904,356.167C321.626,355.871 321.778,355.315 321.5,355.019C320.852,354.329 320.696,354.698 313.601,354.824C309.898,354.549 305.23,354.613 304.502,354.623C301.486,354.665 302.869,356.786 304.468,356.8C309.062,356.839 311.901,356.521 312.544,356.449Z" />
    </g>
</svg>